M48
;DRILL file {KiCad (5.0.0)} date 02/03/19 00:45:25
;FORMAT={-:-/ absolute / metric / decimal}
FMAT,2
METRIC,TZ
T1C0.200
T2C0.300
T3C0.500
T4C0.700
T5C0.750
T6C0.800
T7C0.850
T8C1.000
T9C1.200
T10C0.650
T11C1.000
T12C2.200
T13C2.800
%
G90
G05
M71
T1
X175.054Y-75.724
X175.276Y-73.768
X175.739Y-75.282
X176.25Y-74.216
X176.465Y-73.656
X176.72Y-75.658
T2
X85.Y-87.
X85.Y-89.
X85.Y-91.
X85.7Y-126.5
X86.25Y-100.25
X87.Y-124.05
X87.05Y-91.96
X87.48Y-136.73
X87.5Y-129.25
X87.75Y-82.55
X87.94Y-109.83
X89.815Y-119.765
X90.Y-123.1
X91.037Y-122.3
X91.3Y-104.
X92.8Y-115.5
X92.95Y-82.69
X94.2Y-78.65
X95.2Y-139.5
X95.2Y-134.55
X95.95Y-79.95
X96.05Y-132.2
X98.35Y-134.15
X98.8Y-102.93
X101.Y-77.32
X102.Y-118.5
X102.3Y-134.7
X102.8Y-111.2
X103.5Y-117.
X104.15Y-120.7
X104.8Y-75.3
X104.8Y-128.
X107.25Y-123.65
X109.232Y-133.757
X109.82Y-107.62
X110.4Y-134.45
X110.4Y-139.5
X110.55Y-111.2
X111.05Y-121.65
X112.17Y-82.86
X113.4Y-131.75
X113.45Y-123.575
X115.25Y-78.65
X116.25Y-124.9
X116.3Y-126.15
X116.3Y-127.4
X116.32Y-75.3
X116.65Y-98.14
X116.8Y-120.9
X117.1Y-117.65
X117.75Y-125.95
X117.9Y-132.15
X117.9Y-137.35
X117.998Y-128.098
X118.Y-111.2
X118.Y-129.8
X118.75Y-86.7
X118.75Y-117.
X119.65Y-126.2
X119.7Y-127.4
X121.2Y-84.25
X121.9Y-88.55
X121.91Y-85.9
X121.95Y-81.88
X122.1Y-76.15
X122.635Y-85.45
X122.65Y-131.75
X122.75Y-88.6
X123.375Y-85.
X123.599Y-88.55
X124.21Y-96.28
X124.45Y-118.7
X124.45Y-117.
X124.45Y-117.85
X124.6Y-133.8
X124.75Y-124.1
X125.55Y-82.95
X125.6Y-139.45
X125.65Y-134.55
X126.36Y-89.53
X126.5Y-78.5
X126.7Y-117.
X126.7Y-117.85
X126.7Y-118.7
X126.85Y-123.35
X128.1Y-72.1
X132.05Y-120.9
X132.35Y-117.85
X132.95Y-128.37
X133.2Y-111.2
X133.65Y-134.25
X134.05Y-117.
X134.685Y-88.115
X134.9Y-75.35
X135.03Y-102.75
X135.25Y-97.
X135.3Y-84.2
X137.85Y-131.75
X138.Y-79.
X138.1Y-89.2
X139.24Y-106.77
X139.7Y-133.75
X140.7Y-116.6
X140.7Y-118.6
X140.85Y-134.45
X140.85Y-139.45
X141.05Y-102.7
X141.3Y-92.9
X141.79Y-70.5
X142.1Y-77.1
X144.6Y-123.55
X145.25Y-105.25
X146.6Y-94.05
X147.25Y-103.
X147.3Y-120.9
X147.55Y-117.85
X147.9Y-88.5
X148.35Y-129.3
X148.5Y-111.2
X148.55Y-134.15
X148.55Y-135.45
X148.8Y-92.95
X148.82Y-83.75
X149.Y-90.9
X149.22Y-95.46
X149.3Y-117.
X149.757Y-91.55
X150.45Y-92.1
X152.05Y-101.
X152.3Y-71.7
X152.9Y-103.7
X153.1Y-106.5
X153.39Y-94.79
X154.715Y-121.565
X154.72Y-89.71
X154.8Y-125.2
X155.15Y-116.1
X155.22Y-81.88
X155.4Y-108.4
X156.Y-123.7
X156.05Y-89.95
X156.1Y-139.4
X156.125Y-93.906
X156.15Y-134.4
X156.65Y-116.75
X156.95Y-108.4
X156.95Y-132.15
X157.35Y-99.6
X157.6Y-85.2
X158.3Y-106.3
X158.95Y-111.2
X159.1Y-134.35
X159.25Y-86.7
X159.75Y-97.5
X160.55Y-102.65
X160.65Y-98.75
X160.65Y-100.95
X161.361Y-89.334
X161.864Y-92.962
X161.9Y-96.1
X162.23Y-89.409
X162.25Y-95.
X162.286Y-93.7
X162.35Y-91.104
X162.354Y-90.254
X162.8Y-118.6
X162.803Y-94.354
X163.1Y-82.65
X163.1Y-134.7
X163.4Y-84.95
X163.7Y-111.2
X164.05Y-89.75
X164.5Y-116.9
X164.55Y-102.65
X164.7Y-95.3
X164.7Y-98.65
X164.8Y-107.55
X165.15Y-120.7
X165.33Y-71.56
X165.5Y-90.75
X166.6Y-125.75
X166.7Y-108.15
X166.7Y-109.8
X167.25Y-91.5
X168.Y-81.8
X168.Y-90.25
X168.35Y-123.95
X168.75Y-91.
X169.25Y-79.75
X169.25Y-88.45
X169.53Y-100.37
X169.7Y-123.3
X169.9Y-92.2
X170.Y-84.05
X170.25Y-133.75
X170.7Y-74.55
X171.25Y-116.6
X171.25Y-119.45
X171.3Y-107.9
X171.35Y-139.4
X171.4Y-134.55
X171.6Y-77.45
X172.Y-90.05
X172.2Y-121.65
X172.35Y-82.85
X172.8Y-92.2
X173.25Y-90.2
X174.1Y-76.6
X174.35Y-131.75
X174.45Y-123.575
X174.5Y-73.91
X174.6Y-95.3
X174.95Y-93.05
X175.1Y-80.15
X175.6Y-77.9
X175.7Y-99.4
X177.Y-83.7
X177.25Y-124.85
X177.25Y-126.15
X177.3Y-127.4
X177.701Y-73.907
X177.75Y-120.9
X177.8Y-117.6
X177.885Y-96.2
X178.7Y-132.75
X178.7Y-137.35
X178.9Y-110.9
X179.35Y-124.725
X179.355Y-129.3
X179.65Y-75.4
X179.7Y-116.9
X180.57Y-92.72
X180.65Y-126.1
X180.65Y-127.5
X181.25Y-78.
X181.25Y-79.45
X181.5Y-73.25
X182.25Y-83.15
X182.7Y-88.75
X182.75Y-90.25
X183.5Y-80.5
X183.6Y-131.75
X183.829Y-81.284
X184.26Y-82.017
X185.5Y-133.85
X185.52Y-98.8
X185.6Y-116.9
X185.6Y-117.75
X185.6Y-118.6
X185.8Y-124.
X186.36Y-107.27
X186.6Y-134.25
X186.6Y-139.4
X187.Y-72.75
X187.35Y-116.9
X187.35Y-117.75
X187.35Y-118.6
X188.Y-70.65
X188.29Y-83.74
X188.3Y-82.89
X189.35Y-123.7
X189.55Y-87.46
X190.05Y-82.85
X190.05Y-83.75
X191.Y-86.25
X191.2Y-119.1
X192.1Y-128.4
X192.4Y-83.5
X193.Y-80.25
X193.35Y-117.75
X193.41Y-76.36
X193.7Y-134.
X194.2Y-83.45
X194.2Y-110.9
X194.327Y-136.627
X194.4Y-133.3
X194.9Y-131.
X195.Y-116.9
X195.013Y-135.942
X195.1Y-69.5
X195.1Y-77.85
X195.15Y-101.25
X195.15Y-102.8
X195.63Y-98.96
X196.25Y-88.875
X196.25Y-90.125
X196.25Y-91.425
X196.25Y-92.625
X196.4Y-87.6
X196.9Y-138.15
X197.075Y-95.45
X197.7Y-86.8
X199.45Y-122.65
X199.45Y-123.5
X200.515Y-105.765
X200.65Y-136.15
X200.7Y-96.
X200.7Y-109.2
X200.9Y-132.7
X201.712Y-108.5
X201.712Y-110.9
X201.85Y-134.5
X201.85Y-139.4
X202.1Y-123.5
X202.1Y-122.65
X202.3Y-105.
X202.65Y-95.325
X205.15Y-76.7
X205.3Y-123.85
X205.38Y-72.52
X205.47Y-92.7
X205.83Y-99.94
X206.65Y-97.6
X207.45Y-90.3
X207.6Y-88.7
X207.9Y-125.1
X208.Y-76.8
X208.25Y-120.9
X208.4Y-132.9
X208.55Y-117.6
X208.6Y-118.5
X209.4Y-110.9
X210.4Y-81.5
X211.83Y-99.13
X211.83Y-106.4
X213.2Y-86.25
X215.75Y-88.5
X215.75Y-90.5
T5
X184.51Y-68.49
X184.51Y-69.76
X184.51Y-71.03
X184.51Y-72.3
T6
X92.1Y-72.65
X94.4Y-72.65
T7
X131.Y-94.69
X131.Y-97.23
X131.Y-99.77
X131.Y-102.31
T8
X90.83Y-86.27
X90.83Y-92.77
X95.33Y-86.27
X95.33Y-92.77
X100.28Y-97.77
X102.78Y-97.77
X105.28Y-97.77
X111.03Y-87.02
X111.03Y-89.52
X111.03Y-92.02
X101.07Y-70.425
X103.61Y-70.425
X106.15Y-70.425
X108.69Y-70.425
X111.23Y-70.425
X116.305Y-70.425
X118.845Y-70.425
X121.385Y-70.425
X123.925Y-70.425
T9
X131.75Y-76.5
X131.75Y-80.5
X165.25Y-80.5
X97.48Y-83.27
X97.48Y-95.77
X108.08Y-83.27
X108.08Y-95.77
T10
X172.4Y-74.1
T11
X158.5Y-69.
X158.5Y-75.
T12
X215.7Y-81.01
X81.29Y-81.01
X200.45Y-83.3
X188.Y-95.75
X194.225Y-125.325
X215.7Y-97.01
X81.29Y-97.
X148.5Y-125.325
X81.31Y-113.01
X215.71Y-129.01
X215.7Y-113.01
X81.29Y-129.01
X102.775Y-125.325
T13
X148.5Y-139.5
X215.5Y-139.5
X81.5Y-139.5
X148.5Y-70.5
X215.5Y-70.5
X81.5Y-70.5
T3
X171.51Y-66.6G85X171.51Y-67.2
G05
X171.87Y-72.55G85X171.87Y-73.15
G05
X180.13Y-72.55G85X180.13Y-73.15
G05
X180.49Y-66.6G85X180.49Y-67.2
G05
T4
X217.4Y-85.95G85X217.4Y-86.55
G05
X217.4Y-91.45G85X217.4Y-92.05
G05
X79.6Y-86.55G85X79.6Y-85.95
G05
X79.6Y-92.05G85X79.6Y-91.45
G05
T10
X179.45Y-74.1G85X179.75Y-74.1
G05
T0
M30
