G04 #@! TF.GenerationSoftware,KiCad,Pcbnew,(5.0.0)*
G04 #@! TF.CreationDate,2019-02-03T00:45:11+08:00*
G04 #@! TF.ProjectId,joyMIDI,6A6F794D4944492E6B696361645F7063,rev?*
G04 #@! TF.SameCoordinates,Original*
G04 #@! TF.FileFunction,Legend,Top*
G04 #@! TF.FilePolarity,Positive*
%FSLAX46Y46*%
G04 Gerber Fmt 4.6, Leading zero omitted, Abs format (unit mm)*
G04 Created by KiCad (PCBNEW (5.0.0)) date 02/03/19 00:45:11*
%MOMM*%
%LPD*%
G01*
G04 APERTURE LIST*
%ADD10C,0.200000*%
%ADD11C,2.000000*%
%ADD12C,0.120000*%
%ADD13C,0.100000*%
%ADD14C,0.500000*%
%ADD15C,0.010000*%
%ADD16C,0.150000*%
G04 APERTURE END LIST*
D10*
X129501100Y-104503600D02*
X167501100Y-104503600D01*
X167501100Y-104503600D02*
X167501100Y-92503600D01*
X167501100Y-92503600D02*
X129501100Y-92503600D01*
X90919047Y-77785714D02*
X90919047Y-78642857D01*
X90871428Y-78738095D01*
X90776190Y-78785714D01*
X90728571Y-78785714D01*
X90919047Y-77452380D02*
X90871428Y-77500000D01*
X90919047Y-77547619D01*
X90966666Y-77500000D01*
X90919047Y-77452380D01*
X90919047Y-77547619D01*
X91538095Y-78452380D02*
X91442857Y-78404761D01*
X91395238Y-78357142D01*
X91347619Y-78261904D01*
X91347619Y-77976190D01*
X91395238Y-77880952D01*
X91442857Y-77833333D01*
X91538095Y-77785714D01*
X91680952Y-77785714D01*
X91776190Y-77833333D01*
X91823809Y-77880952D01*
X91871428Y-77976190D01*
X91871428Y-78261904D01*
X91823809Y-78357142D01*
X91776190Y-78404761D01*
X91680952Y-78452380D01*
X91538095Y-78452380D01*
X92204761Y-77785714D02*
X92442857Y-78452380D01*
X92680952Y-77785714D02*
X92442857Y-78452380D01*
X92347619Y-78690476D01*
X92300000Y-78738095D01*
X92204761Y-78785714D01*
X93061904Y-78452380D02*
X93061904Y-77452380D01*
X93395238Y-78166666D01*
X93728571Y-77452380D01*
X93728571Y-78452380D01*
X94204761Y-78452380D02*
X94204761Y-77452380D01*
X94680952Y-78452380D02*
X94680952Y-77452380D01*
X94919047Y-77452380D01*
X95061904Y-77500000D01*
X95157142Y-77595238D01*
X95204761Y-77690476D01*
X95252380Y-77880952D01*
X95252380Y-78023809D01*
X95204761Y-78214285D01*
X95157142Y-78309523D01*
X95061904Y-78404761D01*
X94919047Y-78452380D01*
X94680952Y-78452380D01*
X95680952Y-78452380D02*
X95680952Y-77452380D01*
X88776190Y-79152380D02*
X89109523Y-80152380D01*
X89442857Y-79152380D01*
X90204761Y-79485714D02*
X90204761Y-80152380D01*
X89966666Y-79104761D02*
X89728571Y-79819047D01*
X90347619Y-79819047D01*
X90728571Y-80057142D02*
X90776190Y-80104761D01*
X90728571Y-80152380D01*
X90680952Y-80104761D01*
X90728571Y-80057142D01*
X90728571Y-80152380D01*
X91395238Y-79152380D02*
X91490476Y-79152380D01*
X91585714Y-79200000D01*
X91633333Y-79247619D01*
X91680952Y-79342857D01*
X91728571Y-79533333D01*
X91728571Y-79771428D01*
X91680952Y-79961904D01*
X91633333Y-80057142D01*
X91585714Y-80104761D01*
X91490476Y-80152380D01*
X91395238Y-80152380D01*
X91300000Y-80104761D01*
X91252380Y-80057142D01*
X91204761Y-79961904D01*
X91157142Y-79771428D01*
X91157142Y-79533333D01*
X91204761Y-79342857D01*
X91252380Y-79247619D01*
X91300000Y-79200000D01*
X91395238Y-79152380D01*
X91919047Y-80247619D02*
X92680952Y-80247619D01*
X92871428Y-79247619D02*
X92919047Y-79200000D01*
X93014285Y-79152380D01*
X93252380Y-79152380D01*
X93347619Y-79200000D01*
X93395238Y-79247619D01*
X93442857Y-79342857D01*
X93442857Y-79438095D01*
X93395238Y-79580952D01*
X92823809Y-80152380D01*
X93442857Y-80152380D01*
X94061904Y-79152380D02*
X94157142Y-79152380D01*
X94252380Y-79200000D01*
X94300000Y-79247619D01*
X94347619Y-79342857D01*
X94395238Y-79533333D01*
X94395238Y-79771428D01*
X94347619Y-79961904D01*
X94300000Y-80057142D01*
X94252380Y-80104761D01*
X94157142Y-80152380D01*
X94061904Y-80152380D01*
X93966666Y-80104761D01*
X93919047Y-80057142D01*
X93871428Y-79961904D01*
X93823809Y-79771428D01*
X93823809Y-79533333D01*
X93871428Y-79342857D01*
X93919047Y-79247619D01*
X93966666Y-79200000D01*
X94061904Y-79152380D01*
X95347619Y-80152380D02*
X94776190Y-80152380D01*
X95061904Y-80152380D02*
X95061904Y-79152380D01*
X94966666Y-79295238D01*
X94871428Y-79390476D01*
X94776190Y-79438095D01*
X95823809Y-80152380D02*
X96014285Y-80152380D01*
X96109523Y-80104761D01*
X96157142Y-80057142D01*
X96252380Y-79914285D01*
X96300000Y-79723809D01*
X96300000Y-79342857D01*
X96252380Y-79247619D01*
X96204761Y-79200000D01*
X96109523Y-79152380D01*
X95919047Y-79152380D01*
X95823809Y-79200000D01*
X95776190Y-79247619D01*
X95728571Y-79342857D01*
X95728571Y-79580952D01*
X95776190Y-79676190D01*
X95823809Y-79723809D01*
X95919047Y-79771428D01*
X96109523Y-79771428D01*
X96204761Y-79723809D01*
X96252380Y-79676190D01*
X96300000Y-79580952D01*
X96728571Y-80057142D02*
X96776190Y-80104761D01*
X96728571Y-80152380D01*
X96680952Y-80104761D01*
X96728571Y-80057142D01*
X96728571Y-80152380D01*
X97157142Y-79247619D02*
X97204761Y-79200000D01*
X97300000Y-79152380D01*
X97538095Y-79152380D01*
X97633333Y-79200000D01*
X97680952Y-79247619D01*
X97728571Y-79342857D01*
X97728571Y-79438095D01*
X97680952Y-79580952D01*
X97109523Y-80152380D01*
X97728571Y-80152380D01*
G04 #@! TO.C,RV1*
X131000000Y-83250000D02*
X166000000Y-83250000D01*
X166000000Y-73750000D02*
X131000000Y-73750000D01*
X131000000Y-73750000D02*
X131000000Y-75500000D01*
X131000000Y-77500000D02*
X131000000Y-79500000D01*
X131000000Y-83250000D02*
X131000000Y-81500000D01*
X166000000Y-83250000D02*
X166000000Y-81500000D01*
X166000000Y-73750000D02*
X166000000Y-79500000D01*
X132959339Y-76500000D02*
G75*
G03X132959339Y-76500000I-1209339J0D01*
G01*
X132959339Y-80500000D02*
G75*
G03X132959339Y-80500000I-1209339J0D01*
G01*
X166421537Y-80500000D02*
G75*
G03X166421537Y-80500000I-1171537J0D01*
G01*
D11*
X143600000Y-83250000D02*
X145400000Y-83250000D01*
X153400000Y-83250000D02*
X151600000Y-83250000D01*
X143600000Y-73750000D02*
X145400000Y-73750000D01*
X153400000Y-73750000D02*
X151600000Y-73750000D01*
D12*
G04 #@! TO.C,FSR1*
X94530000Y-117700000D02*
G75*
G03X94530000Y-117700000I-7000000J0D01*
G01*
D13*
X93347537Y-105335073D02*
G75*
G02X93030000Y-103991796I2682463J1343277D01*
G01*
X82030000Y-99700000D02*
G75*
G02X83030000Y-98700000I1000000J0D01*
G01*
X92030000Y-98700000D02*
G75*
G02X93030000Y-99700000I0J-1000000D01*
G01*
X95530000Y-123700000D02*
G75*
G02X93530000Y-125700000I-2000000J0D01*
G01*
X81530000Y-125700000D02*
X93530000Y-125700000D01*
X82029999Y-103989966D02*
G75*
G02X81713282Y-105333437I-2999999J-1830D01*
G01*
X85030000Y-98700000D02*
X83030000Y-98700000D01*
X79530000Y-110408204D02*
X79530000Y-123700000D01*
X79530001Y-110410034D02*
G75*
G02X79846718Y-109066563I2999999J1830D01*
G01*
X93030000Y-103991796D02*
X93030000Y-99700000D01*
X82030000Y-99700000D02*
X82030000Y-103991796D01*
X95530000Y-123700000D02*
X95530000Y-110408204D01*
X81530000Y-125700000D02*
G75*
G02X79530000Y-123700000I0J2000000D01*
G01*
X95212463Y-109064927D02*
G75*
G02X95530000Y-110408204I-2682463J-1343277D01*
G01*
D12*
X92530000Y-117700000D02*
G75*
G03X92530000Y-117700000I-5000000J0D01*
G01*
D13*
X95213282Y-109066563D02*
X93346718Y-105333437D01*
X81713282Y-105333437D02*
X79846718Y-109066563D01*
X92030000Y-98700000D02*
X90030000Y-98700000D01*
D12*
G04 #@! TO.C,J2*
X132330000Y-93360000D02*
X129670000Y-93360000D01*
X132330000Y-101040000D02*
X132330000Y-93360000D01*
X129670000Y-101040000D02*
X129670000Y-93360000D01*
X132330000Y-101040000D02*
X129670000Y-101040000D01*
X132330000Y-102310000D02*
X132330000Y-103640000D01*
X132330000Y-103640000D02*
X131000000Y-103640000D01*
G04 #@! TO.C,J5*
X112560000Y-69095000D02*
X112560000Y-70425000D01*
X111230000Y-69095000D02*
X112560000Y-69095000D01*
X109960000Y-69095000D02*
X109960000Y-71755000D01*
X109960000Y-71755000D02*
X99740000Y-71755000D01*
X109960000Y-69095000D02*
X99740000Y-69095000D01*
X99740000Y-69095000D02*
X99740000Y-71755000D01*
D10*
G04 #@! TO.C,JS1*
X99280000Y-82520000D02*
X106280000Y-82520000D01*
X110780000Y-84770000D02*
X112580000Y-84770000D01*
X110780000Y-94270000D02*
X112580000Y-94270000D01*
X107530000Y-99320000D02*
X107530000Y-97520000D01*
X98030000Y-99320000D02*
X98030000Y-97520000D01*
X112580000Y-94270000D02*
X112580000Y-84770000D01*
X98030000Y-99320000D02*
X107530000Y-99320000D01*
X88980000Y-84820000D02*
X88980000Y-94220000D01*
X88980000Y-84820000D02*
X94780000Y-84820000D01*
X88980000Y-94220000D02*
X94780000Y-94220000D01*
D14*
X103415000Y-89520000D02*
G75*
G03X103415000Y-89520000I-635000J0D01*
G01*
D12*
G04 #@! TO.C,RGB1*
X185590827Y-73182815D02*
G75*
G03X186054830Y-67835000I-1080827J2787815D01*
G01*
X183429173Y-73182815D02*
G75*
G02X182965170Y-67835000I1080827J2787815D01*
G01*
X185590429Y-72649479D02*
G75*
G03X185590000Y-68140316I-1080429J2254479D01*
G01*
X183429571Y-72649479D02*
G75*
G02X183430000Y-68140316I1080429J2254479D01*
G01*
X186055000Y-67835000D02*
X185590000Y-67835000D01*
X183430000Y-67835000D02*
X182965000Y-67835000D01*
G04 #@! TO.C,W1*
X78500000Y-93750000D02*
X83800000Y-93750000D01*
X78500000Y-84250000D02*
X83800000Y-84250000D01*
X78500000Y-93750000D02*
X78500000Y-84250000D01*
X83800000Y-93750000D02*
X83800000Y-84250000D01*
G04 #@! TO.C,W2*
X218500000Y-84250000D02*
X213200000Y-84250000D01*
X218500000Y-93750000D02*
X213200000Y-93750000D01*
X218500000Y-84250000D02*
X218500000Y-93750000D01*
X213200000Y-84250000D02*
X213200000Y-93750000D01*
G04 #@! TO.C,D2*
X194960000Y-103510000D02*
X194960000Y-101225000D01*
X193490000Y-103510000D02*
X194960000Y-103510000D01*
X193490000Y-101225000D02*
X193490000Y-103510000D01*
G04 #@! TO.C,D3*
X182510000Y-90985000D02*
X182510000Y-88700000D01*
X181040000Y-90985000D02*
X182510000Y-90985000D01*
X181040000Y-88700000D02*
X181040000Y-90985000D01*
G04 #@! TO.C,D4*
X193490000Y-76300000D02*
X193490000Y-78585000D01*
X193490000Y-78585000D02*
X194960000Y-78585000D01*
X194960000Y-78585000D02*
X194960000Y-76300000D01*
G04 #@! TO.C,D5*
X205940000Y-88725000D02*
X205940000Y-91010000D01*
X205940000Y-91010000D02*
X207410000Y-91010000D01*
X207410000Y-91010000D02*
X207410000Y-88725000D01*
G04 #@! TO.C,D6*
X164475000Y-119185000D02*
X164475000Y-116900000D01*
X163005000Y-119185000D02*
X164475000Y-119185000D01*
X163005000Y-116900000D02*
X163005000Y-119185000D01*
G04 #@! TO.C,D7*
X178245000Y-116940000D02*
X178245000Y-119225000D01*
X178245000Y-119225000D02*
X179715000Y-119225000D01*
X179715000Y-119225000D02*
X179715000Y-116940000D01*
G04 #@! TO.C,D8*
X193485000Y-116910000D02*
X193485000Y-119195000D01*
X193485000Y-119195000D02*
X194955000Y-119195000D01*
X194955000Y-119195000D02*
X194955000Y-116910000D01*
G04 #@! TO.C,D9*
X210195000Y-119205000D02*
X210195000Y-116920000D01*
X208725000Y-119205000D02*
X210195000Y-119205000D01*
X208725000Y-116920000D02*
X208725000Y-119205000D01*
G04 #@! TO.C,D10*
X202575000Y-133770000D02*
X202575000Y-131485000D01*
X202575000Y-131485000D02*
X201105000Y-131485000D01*
X201105000Y-131485000D02*
X201105000Y-133770000D01*
G04 #@! TO.C,D11*
X187335000Y-133760000D02*
X187335000Y-131475000D01*
X187335000Y-131475000D02*
X185865000Y-131475000D01*
X185865000Y-131475000D02*
X185865000Y-133760000D01*
G04 #@! TO.C,D12*
X172095000Y-133760000D02*
X172095000Y-131475000D01*
X172095000Y-131475000D02*
X170625000Y-131475000D01*
X170625000Y-131475000D02*
X170625000Y-133760000D01*
G04 #@! TO.C,D13*
X156860000Y-133700000D02*
X156860000Y-131415000D01*
X156860000Y-131415000D02*
X155390000Y-131415000D01*
X155390000Y-131415000D02*
X155390000Y-133700000D01*
G04 #@! TO.C,D15*
X102040000Y-116925000D02*
X102040000Y-119210000D01*
X102040000Y-119210000D02*
X103510000Y-119210000D01*
X103510000Y-119210000D02*
X103510000Y-116925000D01*
G04 #@! TO.C,D16*
X117290000Y-116950000D02*
X117290000Y-119235000D01*
X117290000Y-119235000D02*
X118760000Y-119235000D01*
X118760000Y-119235000D02*
X118760000Y-116950000D01*
G04 #@! TO.C,D17*
X134010000Y-119160000D02*
X134010000Y-116875000D01*
X132540000Y-119160000D02*
X134010000Y-119160000D01*
X132540000Y-116875000D02*
X132540000Y-119160000D01*
G04 #@! TO.C,D18*
X147765000Y-116950000D02*
X147765000Y-119235000D01*
X147765000Y-119235000D02*
X149235000Y-119235000D01*
X149235000Y-119235000D02*
X149235000Y-116950000D01*
G04 #@! TO.C,D19*
X140140000Y-131465000D02*
X140140000Y-133750000D01*
X141610000Y-131465000D02*
X140140000Y-131465000D01*
X141610000Y-133750000D02*
X141610000Y-131465000D01*
G04 #@! TO.C,D20*
X124915000Y-131515000D02*
X124915000Y-133800000D01*
X126385000Y-131515000D02*
X124915000Y-131515000D01*
X126385000Y-133800000D02*
X126385000Y-131515000D01*
G04 #@! TO.C,D21*
X111135000Y-133775000D02*
X111135000Y-131490000D01*
X111135000Y-131490000D02*
X109665000Y-131490000D01*
X109665000Y-131490000D02*
X109665000Y-133775000D01*
G04 #@! TO.C,D22*
X94440000Y-131515000D02*
X94440000Y-133800000D01*
X95910000Y-131515000D02*
X94440000Y-131515000D01*
X95910000Y-133800000D02*
X95910000Y-131515000D01*
G04 #@! TO.C,J4*
X114975000Y-69095000D02*
X114975000Y-71755000D01*
X122655000Y-69095000D02*
X114975000Y-69095000D01*
X122655000Y-71755000D02*
X114975000Y-71755000D01*
X122655000Y-69095000D02*
X122655000Y-71755000D01*
X123925000Y-69095000D02*
X125255000Y-69095000D01*
X125255000Y-69095000D02*
X125255000Y-70425000D01*
D15*
G04 #@! TO.C,G\002A\002A\002A*
G36*
X93603846Y-68373465D02*
X93937478Y-68373942D01*
X94207813Y-68375171D01*
X94422279Y-68377504D01*
X94588305Y-68381295D01*
X94713318Y-68386898D01*
X94804747Y-68394666D01*
X94870021Y-68404954D01*
X94916568Y-68418115D01*
X94951816Y-68434503D01*
X94983194Y-68454471D01*
X94989198Y-68458607D01*
X95107467Y-68547915D01*
X95264029Y-68677392D01*
X95450871Y-68839430D01*
X95659977Y-69026418D01*
X95883336Y-69230747D01*
X96112932Y-69444806D01*
X96340753Y-69660986D01*
X96558784Y-69871678D01*
X96759012Y-70069270D01*
X96933423Y-70246153D01*
X97074003Y-70394718D01*
X97172739Y-70507354D01*
X97221616Y-70576452D01*
X97223184Y-70579999D01*
X97235068Y-70625026D01*
X97243174Y-70696971D01*
X97247401Y-70802717D01*
X97247648Y-70949150D01*
X97243812Y-71143154D01*
X97235792Y-71391614D01*
X97223487Y-71701415D01*
X97206795Y-72079442D01*
X97198390Y-72261538D01*
X97181845Y-72606930D01*
X97165483Y-72930668D01*
X97149818Y-73223800D01*
X97135368Y-73477369D01*
X97122649Y-73682422D01*
X97112176Y-73830004D01*
X97104465Y-73911161D01*
X97102760Y-73921246D01*
X97065099Y-74011863D01*
X96990954Y-74102809D01*
X96873587Y-74198513D01*
X96706256Y-74303401D01*
X96482222Y-74421904D01*
X96194744Y-74558448D01*
X95998828Y-74646528D01*
X95770601Y-74748219D01*
X95566451Y-74840375D01*
X95397261Y-74917984D01*
X95273918Y-74976035D01*
X95207308Y-75009516D01*
X95199284Y-75014615D01*
X95195999Y-75060868D01*
X95208272Y-75168367D01*
X95233862Y-75322258D01*
X95270529Y-75507687D01*
X95281074Y-75556823D01*
X95393272Y-76071538D01*
X95184482Y-76071538D01*
X95062449Y-76075134D01*
X94999687Y-76090597D01*
X94977462Y-76124938D01*
X94975692Y-76149692D01*
X94983608Y-76191988D01*
X95018870Y-76215568D01*
X95098747Y-76225748D01*
X95229692Y-76227846D01*
X95366231Y-76229559D01*
X95442282Y-76239225D01*
X95475501Y-76263636D01*
X95483545Y-76309583D01*
X95483692Y-76325538D01*
X95478211Y-76381211D01*
X95449096Y-76410364D01*
X95377343Y-76421524D01*
X95265903Y-76423230D01*
X95141149Y-76426615D01*
X95077764Y-76440472D01*
X95059118Y-76470353D01*
X95061100Y-76491615D01*
X95085049Y-76531458D01*
X95149211Y-76557341D01*
X95269745Y-76574592D01*
X95327735Y-76579538D01*
X95464272Y-76592142D01*
X95540333Y-76608773D01*
X95573489Y-76637551D01*
X95581310Y-76686597D01*
X95581384Y-76696769D01*
X95575400Y-76752294D01*
X95544965Y-76783109D01*
X95471356Y-76798382D01*
X95358051Y-76806140D01*
X95134717Y-76817819D01*
X95157781Y-76933140D01*
X95180846Y-77048461D01*
X94946384Y-77048461D01*
X94816053Y-77046467D01*
X94743554Y-77034327D01*
X94708573Y-77002808D01*
X94690793Y-76942674D01*
X94688476Y-76931230D01*
X94672701Y-76868781D01*
X94644153Y-76833716D01*
X94583734Y-76818133D01*
X94472347Y-76814129D01*
X94405169Y-76814000D01*
X94145307Y-76814000D01*
X94169123Y-76933079D01*
X94192939Y-77052159D01*
X93950931Y-77040541D01*
X93816746Y-77031309D01*
X93740866Y-77014473D01*
X93703441Y-76981843D01*
X93686007Y-76931230D01*
X93673738Y-76889274D01*
X93651041Y-76861468D01*
X93603899Y-76844902D01*
X93518290Y-76836665D01*
X93380195Y-76833847D01*
X93215468Y-76833538D01*
X92767846Y-76833538D01*
X92755481Y-76941000D01*
X92744727Y-76999237D01*
X92716935Y-77031395D01*
X92653312Y-77045207D01*
X92535067Y-77048411D01*
X92494439Y-77048461D01*
X92245763Y-77048461D01*
X92279384Y-76931230D01*
X92313005Y-76814000D01*
X92045300Y-76814000D01*
X91904000Y-76815391D01*
X91821937Y-76824602D01*
X91780194Y-76849191D01*
X91759855Y-76896714D01*
X91751846Y-76931230D01*
X91733586Y-76996024D01*
X91701531Y-77031068D01*
X91635268Y-77045497D01*
X91514383Y-77048445D01*
X91489856Y-77048461D01*
X91253615Y-77048461D01*
X91277061Y-76931230D01*
X91300507Y-76814000D01*
X91086561Y-76814000D01*
X90964046Y-76812006D01*
X90900403Y-76798981D01*
X90876353Y-76764362D01*
X90872615Y-76697583D01*
X90872615Y-76579538D01*
X91126615Y-76579538D01*
X91264076Y-76577102D01*
X91340713Y-76566252D01*
X91373797Y-76541675D01*
X91378961Y-76511154D01*
X91856846Y-76511154D01*
X91859352Y-76548079D01*
X91895114Y-76568828D01*
X91979909Y-76577825D01*
X92100673Y-76579538D01*
X92230858Y-76577269D01*
X92323275Y-76571325D01*
X92357538Y-76563196D01*
X92364494Y-76537000D01*
X92849420Y-76537000D01*
X92866498Y-76559753D01*
X92918908Y-76572511D01*
X93020110Y-76578145D01*
X93183563Y-76579521D01*
X93220889Y-76579538D01*
X93384092Y-76578005D01*
X93513308Y-76573875D01*
X93591915Y-76567849D01*
X93608000Y-76563196D01*
X93597231Y-76498515D01*
X93588970Y-76490185D01*
X94062874Y-76490185D01*
X94065600Y-76501384D01*
X94086850Y-76544452D01*
X94134633Y-76568170D01*
X94227806Y-76577997D01*
X94335480Y-76579538D01*
X94471443Y-76577014D01*
X94546724Y-76565807D01*
X94578731Y-76540463D01*
X94584923Y-76501384D01*
X94577449Y-76460092D01*
X94543820Y-76436550D01*
X94467223Y-76425889D01*
X94330846Y-76423242D01*
X94315042Y-76423230D01*
X94173702Y-76424978D01*
X94094933Y-76433469D01*
X94063177Y-76453580D01*
X94062874Y-76490185D01*
X93588970Y-76490185D01*
X93556055Y-76456998D01*
X93471168Y-76433876D01*
X93329266Y-76424377D01*
X93217607Y-76423230D01*
X93051680Y-76424866D01*
X92947896Y-76432065D01*
X92890271Y-76448263D01*
X92862823Y-76476900D01*
X92854215Y-76501384D01*
X92849420Y-76537000D01*
X92364494Y-76537000D01*
X92369716Y-76517340D01*
X92381985Y-76483144D01*
X92385814Y-76449850D01*
X92355177Y-76432208D01*
X92275430Y-76427092D01*
X92138159Y-76431102D01*
X91991183Y-76441073D01*
X91905889Y-76458159D01*
X91865841Y-76487039D01*
X91856846Y-76511154D01*
X91378961Y-76511154D01*
X91380615Y-76501384D01*
X91371286Y-76456219D01*
X91330953Y-76432691D01*
X91241093Y-76424064D01*
X91165692Y-76423230D01*
X91042601Y-76420694D01*
X90978508Y-76407291D01*
X90954290Y-76374328D01*
X90950769Y-76325538D01*
X90955223Y-76273023D01*
X90980355Y-76243773D01*
X91043824Y-76230996D01*
X91163284Y-76227902D01*
X91204769Y-76227846D01*
X91342229Y-76225410D01*
X91418867Y-76214560D01*
X91451951Y-76189983D01*
X91456801Y-76161320D01*
X91934642Y-76161320D01*
X91935404Y-76198183D01*
X91966016Y-76217861D01*
X92042265Y-76224007D01*
X92179936Y-76220277D01*
X92187834Y-76219935D01*
X92333623Y-76210112D01*
X92418082Y-76193249D01*
X92458002Y-76164435D01*
X92463490Y-76149692D01*
X92943692Y-76149692D01*
X92950694Y-76189852D01*
X92982562Y-76213315D01*
X93055583Y-76224481D01*
X93186048Y-76227747D01*
X93233110Y-76227846D01*
X93380716Y-76226308D01*
X93465336Y-76218758D01*
X93502122Y-76200795D01*
X93506227Y-76168015D01*
X93502091Y-76149692D01*
X93491130Y-76126949D01*
X93978360Y-76126949D01*
X93984070Y-76167751D01*
X94018923Y-76202679D01*
X94099742Y-76221601D01*
X94241596Y-76227799D01*
X94259815Y-76227846D01*
X94396643Y-76225231D01*
X94471274Y-76214368D01*
X94499575Y-76190730D01*
X94499499Y-76159461D01*
X94472755Y-76116575D01*
X94401602Y-76091703D01*
X94276599Y-76079088D01*
X94111938Y-76075876D01*
X94015351Y-76090973D01*
X93978360Y-76126949D01*
X93491130Y-76126949D01*
X93481978Y-76107961D01*
X93436941Y-76084295D01*
X93348831Y-76073790D01*
X93212673Y-76071538D01*
X93070369Y-76073716D01*
X92989335Y-76083513D01*
X92952732Y-76105820D01*
X92943725Y-76145529D01*
X92943692Y-76149692D01*
X92463490Y-76149692D01*
X92467819Y-76138064D01*
X92467057Y-76101201D01*
X92436444Y-76081523D01*
X92360195Y-76075377D01*
X92222524Y-76079107D01*
X92214627Y-76079448D01*
X92068837Y-76089272D01*
X91984379Y-76106135D01*
X91944459Y-76134949D01*
X91934642Y-76161320D01*
X91456801Y-76161320D01*
X91458769Y-76149692D01*
X91450214Y-76106041D01*
X91412633Y-76082455D01*
X91328155Y-76072975D01*
X91224307Y-76071538D01*
X91100785Y-76067103D01*
X91016108Y-76055574D01*
X90990553Y-76042230D01*
X90998816Y-75995035D01*
X91020907Y-75886839D01*
X91053623Y-75732916D01*
X91093760Y-75548541D01*
X91100983Y-75515753D01*
X91210706Y-75018583D01*
X90898604Y-74881135D01*
X92064461Y-74881135D01*
X92065593Y-75033018D01*
X92072934Y-75147788D01*
X92092400Y-75247044D01*
X92129906Y-75352379D01*
X92191370Y-75485392D01*
X92276648Y-75655692D01*
X92367240Y-75832780D01*
X92432443Y-75951021D01*
X92481300Y-76021730D01*
X92522849Y-76056221D01*
X92566133Y-76065807D01*
X92602688Y-76063720D01*
X92647130Y-76056417D01*
X92682552Y-76037374D01*
X92714471Y-75995201D01*
X92748403Y-75918510D01*
X92789865Y-75795911D01*
X92844374Y-75616017D01*
X92882836Y-75485384D01*
X92974849Y-75172640D01*
X93047706Y-74927185D01*
X93103914Y-74741216D01*
X93145976Y-74606928D01*
X93176395Y-74516518D01*
X93197677Y-74462183D01*
X93212325Y-74436118D01*
X93221383Y-74430362D01*
X93239590Y-74466070D01*
X93275933Y-74565916D01*
X93326958Y-74718924D01*
X93389209Y-74914118D01*
X93459234Y-75140524D01*
X93533577Y-75387165D01*
X93608785Y-75643066D01*
X93667187Y-75846846D01*
X93706078Y-75972542D01*
X93741045Y-76039988D01*
X93786019Y-76067018D01*
X93842702Y-76071538D01*
X93893967Y-76065968D01*
X93938781Y-76041380D01*
X93986571Y-75985957D01*
X94046767Y-75887881D01*
X94128796Y-75735336D01*
X94162280Y-75671000D01*
X94369930Y-75270461D01*
X94369965Y-74879692D01*
X94367857Y-74692353D01*
X94358442Y-74558585D01*
X94337139Y-74453854D01*
X94299367Y-74353624D01*
X94254378Y-74260515D01*
X94188429Y-74152284D01*
X94097859Y-74031665D01*
X93995626Y-73912479D01*
X93894687Y-73808550D01*
X93808000Y-73733698D01*
X93748523Y-73701746D01*
X93733858Y-73705269D01*
X93746704Y-73742349D01*
X93800570Y-73816959D01*
X93854827Y-73880437D01*
X94008653Y-74070650D01*
X94105921Y-74248679D01*
X94157329Y-74442146D01*
X94173574Y-74678677D01*
X94173677Y-74703846D01*
X94169089Y-74890278D01*
X94152358Y-75024538D01*
X94119032Y-75132231D01*
X94087887Y-75197257D01*
X94014224Y-75310679D01*
X93943610Y-75377460D01*
X93887851Y-75389169D01*
X93863193Y-75357725D01*
X93846612Y-75301103D01*
X93814564Y-75188112D01*
X93772406Y-75037715D01*
X93744734Y-74938307D01*
X93684050Y-74725073D01*
X93612116Y-74480202D01*
X93541559Y-74246472D01*
X93519866Y-74176307D01*
X93398069Y-73785538D01*
X93315178Y-74057757D01*
X93272695Y-74183606D01*
X93236096Y-74267662D01*
X93212302Y-74294495D01*
X93210006Y-74292218D01*
X93187966Y-74236826D01*
X93153144Y-74130912D01*
X93119727Y-74020000D01*
X93095809Y-73936138D01*
X93076227Y-73876380D01*
X93057637Y-73847076D01*
X93036693Y-73854576D01*
X93010050Y-73905229D01*
X92974362Y-74005386D01*
X92926285Y-74161398D01*
X92862473Y-74379613D01*
X92780047Y-74664769D01*
X92715203Y-74885034D01*
X92655893Y-75079515D01*
X92606122Y-75235630D01*
X92569892Y-75340797D01*
X92551879Y-75381830D01*
X92504346Y-75387793D01*
X92442748Y-75333352D01*
X92377239Y-75232415D01*
X92317970Y-75098884D01*
X92295832Y-75031152D01*
X92248039Y-74735318D01*
X92276462Y-74448694D01*
X92379168Y-74179487D01*
X92553402Y-73936800D01*
X92650275Y-73828484D01*
X92697693Y-73764549D01*
X92701627Y-73734273D01*
X92670266Y-73726923D01*
X92599075Y-73758123D01*
X92502877Y-73841137D01*
X92395722Y-73960086D01*
X92291662Y-74099089D01*
X92204747Y-74242268D01*
X92191839Y-74267600D01*
X92129259Y-74402420D01*
X92091272Y-74513863D01*
X92071869Y-74630876D01*
X92065039Y-74782410D01*
X92064461Y-74881135D01*
X90898604Y-74881135D01*
X90484814Y-74698905D01*
X90253946Y-74595938D01*
X90038878Y-74497618D01*
X89853213Y-74410350D01*
X89710550Y-74340538D01*
X89624492Y-74294586D01*
X89618914Y-74291168D01*
X89451884Y-74159850D01*
X89326659Y-74008697D01*
X89258588Y-73856968D01*
X89253917Y-73833234D01*
X89247984Y-73767214D01*
X89239397Y-73632275D01*
X89228619Y-73437589D01*
X89216114Y-73192329D01*
X89202344Y-72905666D01*
X89187773Y-72586773D01*
X89172864Y-72244824D01*
X89170626Y-72191898D01*
X90208689Y-72191898D01*
X90247455Y-72469428D01*
X90360342Y-72733789D01*
X90543663Y-72979166D01*
X90793734Y-73199746D01*
X90889335Y-73265495D01*
X91217236Y-73438051D01*
X91551772Y-73538606D01*
X91885296Y-73566942D01*
X92210160Y-73522843D01*
X92518715Y-73406091D01*
X92671078Y-73315993D01*
X92778063Y-73245126D01*
X92855606Y-73195885D01*
X92884794Y-73179846D01*
X92898855Y-73214742D01*
X92925483Y-73306888D01*
X92959297Y-73437467D01*
X92964450Y-73458363D01*
X93002762Y-73601183D01*
X93033691Y-73670638D01*
X93062995Y-73665918D01*
X93096434Y-73586214D01*
X93138957Y-73433846D01*
X93172642Y-73316682D01*
X93202903Y-73232308D01*
X93215400Y-73208929D01*
X93236520Y-73229090D01*
X93269198Y-73309183D01*
X93307098Y-73433059D01*
X93315076Y-73462929D01*
X93389026Y-73746461D01*
X93459938Y-73512000D01*
X93500221Y-73380389D01*
X93533150Y-73275610D01*
X93549113Y-73227512D01*
X93584502Y-73214169D01*
X93666914Y-73250625D01*
X93768380Y-73315752D01*
X94061767Y-73471969D01*
X94377182Y-73556137D01*
X94705143Y-73567727D01*
X95036169Y-73506213D01*
X95302542Y-73401198D01*
X95614657Y-73217356D01*
X95868517Y-73005842D01*
X96060135Y-72772691D01*
X96185526Y-72523937D01*
X96240703Y-72265614D01*
X96222651Y-72008229D01*
X96129447Y-71753611D01*
X95971173Y-71530065D01*
X95759344Y-71353093D01*
X95717113Y-71327775D01*
X95618393Y-71274310D01*
X95534102Y-71239398D01*
X95443252Y-71219102D01*
X95324854Y-71209484D01*
X95157917Y-71206607D01*
X95070438Y-71206461D01*
X94879804Y-71207408D01*
X94743103Y-71213747D01*
X94636113Y-71230724D01*
X94534613Y-71263584D01*
X94414382Y-71317573D01*
X94301604Y-71372977D01*
X94043621Y-71523309D01*
X93831266Y-71700782D01*
X93656321Y-71916604D01*
X93510564Y-72181985D01*
X93385779Y-72508133D01*
X93327655Y-72701154D01*
X93284479Y-72846589D01*
X93246803Y-72957923D01*
X93220682Y-73017843D01*
X93214887Y-73023538D01*
X93195943Y-72988454D01*
X93166125Y-72895572D01*
X93131243Y-72763445D01*
X93124145Y-72733832D01*
X93042864Y-72461385D01*
X92932029Y-72191935D01*
X92803076Y-71949535D01*
X92667438Y-71758235D01*
X92651917Y-71740587D01*
X92389777Y-71507364D01*
X92083540Y-71333988D01*
X91744829Y-71225501D01*
X91385267Y-71186947D01*
X91375963Y-71186923D01*
X91069454Y-71210393D01*
X90815387Y-71283578D01*
X90602700Y-71410636D01*
X90482512Y-71522880D01*
X90335791Y-71707030D01*
X90249335Y-71885655D01*
X90212210Y-72085465D01*
X90208689Y-72191898D01*
X89170626Y-72191898D01*
X89168613Y-72144307D01*
X89102963Y-70581230D01*
X89191064Y-70377147D01*
X89228405Y-70301133D01*
X89277571Y-70226043D01*
X89347183Y-70142926D01*
X89445859Y-70042829D01*
X89582220Y-69916800D01*
X89764887Y-69755886D01*
X89909813Y-69630684D01*
X90208378Y-69376462D01*
X90491592Y-69140231D01*
X90752238Y-68927717D01*
X90983103Y-68744647D01*
X91176969Y-68596747D01*
X91326622Y-68489743D01*
X91421294Y-68431171D01*
X91459898Y-68416755D01*
X91519423Y-68404867D01*
X91606842Y-68395280D01*
X91729132Y-68387768D01*
X91893266Y-68382104D01*
X92106218Y-68378062D01*
X92374964Y-68375415D01*
X92706479Y-68373936D01*
X93107736Y-68373399D01*
X93199488Y-68373384D01*
X93603846Y-68373465D01*
X93603846Y-68373465D01*
G37*
X93603846Y-68373465D02*
X93937478Y-68373942D01*
X94207813Y-68375171D01*
X94422279Y-68377504D01*
X94588305Y-68381295D01*
X94713318Y-68386898D01*
X94804747Y-68394666D01*
X94870021Y-68404954D01*
X94916568Y-68418115D01*
X94951816Y-68434503D01*
X94983194Y-68454471D01*
X94989198Y-68458607D01*
X95107467Y-68547915D01*
X95264029Y-68677392D01*
X95450871Y-68839430D01*
X95659977Y-69026418D01*
X95883336Y-69230747D01*
X96112932Y-69444806D01*
X96340753Y-69660986D01*
X96558784Y-69871678D01*
X96759012Y-70069270D01*
X96933423Y-70246153D01*
X97074003Y-70394718D01*
X97172739Y-70507354D01*
X97221616Y-70576452D01*
X97223184Y-70579999D01*
X97235068Y-70625026D01*
X97243174Y-70696971D01*
X97247401Y-70802717D01*
X97247648Y-70949150D01*
X97243812Y-71143154D01*
X97235792Y-71391614D01*
X97223487Y-71701415D01*
X97206795Y-72079442D01*
X97198390Y-72261538D01*
X97181845Y-72606930D01*
X97165483Y-72930668D01*
X97149818Y-73223800D01*
X97135368Y-73477369D01*
X97122649Y-73682422D01*
X97112176Y-73830004D01*
X97104465Y-73911161D01*
X97102760Y-73921246D01*
X97065099Y-74011863D01*
X96990954Y-74102809D01*
X96873587Y-74198513D01*
X96706256Y-74303401D01*
X96482222Y-74421904D01*
X96194744Y-74558448D01*
X95998828Y-74646528D01*
X95770601Y-74748219D01*
X95566451Y-74840375D01*
X95397261Y-74917984D01*
X95273918Y-74976035D01*
X95207308Y-75009516D01*
X95199284Y-75014615D01*
X95195999Y-75060868D01*
X95208272Y-75168367D01*
X95233862Y-75322258D01*
X95270529Y-75507687D01*
X95281074Y-75556823D01*
X95393272Y-76071538D01*
X95184482Y-76071538D01*
X95062449Y-76075134D01*
X94999687Y-76090597D01*
X94977462Y-76124938D01*
X94975692Y-76149692D01*
X94983608Y-76191988D01*
X95018870Y-76215568D01*
X95098747Y-76225748D01*
X95229692Y-76227846D01*
X95366231Y-76229559D01*
X95442282Y-76239225D01*
X95475501Y-76263636D01*
X95483545Y-76309583D01*
X95483692Y-76325538D01*
X95478211Y-76381211D01*
X95449096Y-76410364D01*
X95377343Y-76421524D01*
X95265903Y-76423230D01*
X95141149Y-76426615D01*
X95077764Y-76440472D01*
X95059118Y-76470353D01*
X95061100Y-76491615D01*
X95085049Y-76531458D01*
X95149211Y-76557341D01*
X95269745Y-76574592D01*
X95327735Y-76579538D01*
X95464272Y-76592142D01*
X95540333Y-76608773D01*
X95573489Y-76637551D01*
X95581310Y-76686597D01*
X95581384Y-76696769D01*
X95575400Y-76752294D01*
X95544965Y-76783109D01*
X95471356Y-76798382D01*
X95358051Y-76806140D01*
X95134717Y-76817819D01*
X95157781Y-76933140D01*
X95180846Y-77048461D01*
X94946384Y-77048461D01*
X94816053Y-77046467D01*
X94743554Y-77034327D01*
X94708573Y-77002808D01*
X94690793Y-76942674D01*
X94688476Y-76931230D01*
X94672701Y-76868781D01*
X94644153Y-76833716D01*
X94583734Y-76818133D01*
X94472347Y-76814129D01*
X94405169Y-76814000D01*
X94145307Y-76814000D01*
X94169123Y-76933079D01*
X94192939Y-77052159D01*
X93950931Y-77040541D01*
X93816746Y-77031309D01*
X93740866Y-77014473D01*
X93703441Y-76981843D01*
X93686007Y-76931230D01*
X93673738Y-76889274D01*
X93651041Y-76861468D01*
X93603899Y-76844902D01*
X93518290Y-76836665D01*
X93380195Y-76833847D01*
X93215468Y-76833538D01*
X92767846Y-76833538D01*
X92755481Y-76941000D01*
X92744727Y-76999237D01*
X92716935Y-77031395D01*
X92653312Y-77045207D01*
X92535067Y-77048411D01*
X92494439Y-77048461D01*
X92245763Y-77048461D01*
X92279384Y-76931230D01*
X92313005Y-76814000D01*
X92045300Y-76814000D01*
X91904000Y-76815391D01*
X91821937Y-76824602D01*
X91780194Y-76849191D01*
X91759855Y-76896714D01*
X91751846Y-76931230D01*
X91733586Y-76996024D01*
X91701531Y-77031068D01*
X91635268Y-77045497D01*
X91514383Y-77048445D01*
X91489856Y-77048461D01*
X91253615Y-77048461D01*
X91277061Y-76931230D01*
X91300507Y-76814000D01*
X91086561Y-76814000D01*
X90964046Y-76812006D01*
X90900403Y-76798981D01*
X90876353Y-76764362D01*
X90872615Y-76697583D01*
X90872615Y-76579538D01*
X91126615Y-76579538D01*
X91264076Y-76577102D01*
X91340713Y-76566252D01*
X91373797Y-76541675D01*
X91378961Y-76511154D01*
X91856846Y-76511154D01*
X91859352Y-76548079D01*
X91895114Y-76568828D01*
X91979909Y-76577825D01*
X92100673Y-76579538D01*
X92230858Y-76577269D01*
X92323275Y-76571325D01*
X92357538Y-76563196D01*
X92364494Y-76537000D01*
X92849420Y-76537000D01*
X92866498Y-76559753D01*
X92918908Y-76572511D01*
X93020110Y-76578145D01*
X93183563Y-76579521D01*
X93220889Y-76579538D01*
X93384092Y-76578005D01*
X93513308Y-76573875D01*
X93591915Y-76567849D01*
X93608000Y-76563196D01*
X93597231Y-76498515D01*
X93588970Y-76490185D01*
X94062874Y-76490185D01*
X94065600Y-76501384D01*
X94086850Y-76544452D01*
X94134633Y-76568170D01*
X94227806Y-76577997D01*
X94335480Y-76579538D01*
X94471443Y-76577014D01*
X94546724Y-76565807D01*
X94578731Y-76540463D01*
X94584923Y-76501384D01*
X94577449Y-76460092D01*
X94543820Y-76436550D01*
X94467223Y-76425889D01*
X94330846Y-76423242D01*
X94315042Y-76423230D01*
X94173702Y-76424978D01*
X94094933Y-76433469D01*
X94063177Y-76453580D01*
X94062874Y-76490185D01*
X93588970Y-76490185D01*
X93556055Y-76456998D01*
X93471168Y-76433876D01*
X93329266Y-76424377D01*
X93217607Y-76423230D01*
X93051680Y-76424866D01*
X92947896Y-76432065D01*
X92890271Y-76448263D01*
X92862823Y-76476900D01*
X92854215Y-76501384D01*
X92849420Y-76537000D01*
X92364494Y-76537000D01*
X92369716Y-76517340D01*
X92381985Y-76483144D01*
X92385814Y-76449850D01*
X92355177Y-76432208D01*
X92275430Y-76427092D01*
X92138159Y-76431102D01*
X91991183Y-76441073D01*
X91905889Y-76458159D01*
X91865841Y-76487039D01*
X91856846Y-76511154D01*
X91378961Y-76511154D01*
X91380615Y-76501384D01*
X91371286Y-76456219D01*
X91330953Y-76432691D01*
X91241093Y-76424064D01*
X91165692Y-76423230D01*
X91042601Y-76420694D01*
X90978508Y-76407291D01*
X90954290Y-76374328D01*
X90950769Y-76325538D01*
X90955223Y-76273023D01*
X90980355Y-76243773D01*
X91043824Y-76230996D01*
X91163284Y-76227902D01*
X91204769Y-76227846D01*
X91342229Y-76225410D01*
X91418867Y-76214560D01*
X91451951Y-76189983D01*
X91456801Y-76161320D01*
X91934642Y-76161320D01*
X91935404Y-76198183D01*
X91966016Y-76217861D01*
X92042265Y-76224007D01*
X92179936Y-76220277D01*
X92187834Y-76219935D01*
X92333623Y-76210112D01*
X92418082Y-76193249D01*
X92458002Y-76164435D01*
X92463490Y-76149692D01*
X92943692Y-76149692D01*
X92950694Y-76189852D01*
X92982562Y-76213315D01*
X93055583Y-76224481D01*
X93186048Y-76227747D01*
X93233110Y-76227846D01*
X93380716Y-76226308D01*
X93465336Y-76218758D01*
X93502122Y-76200795D01*
X93506227Y-76168015D01*
X93502091Y-76149692D01*
X93491130Y-76126949D01*
X93978360Y-76126949D01*
X93984070Y-76167751D01*
X94018923Y-76202679D01*
X94099742Y-76221601D01*
X94241596Y-76227799D01*
X94259815Y-76227846D01*
X94396643Y-76225231D01*
X94471274Y-76214368D01*
X94499575Y-76190730D01*
X94499499Y-76159461D01*
X94472755Y-76116575D01*
X94401602Y-76091703D01*
X94276599Y-76079088D01*
X94111938Y-76075876D01*
X94015351Y-76090973D01*
X93978360Y-76126949D01*
X93491130Y-76126949D01*
X93481978Y-76107961D01*
X93436941Y-76084295D01*
X93348831Y-76073790D01*
X93212673Y-76071538D01*
X93070369Y-76073716D01*
X92989335Y-76083513D01*
X92952732Y-76105820D01*
X92943725Y-76145529D01*
X92943692Y-76149692D01*
X92463490Y-76149692D01*
X92467819Y-76138064D01*
X92467057Y-76101201D01*
X92436444Y-76081523D01*
X92360195Y-76075377D01*
X92222524Y-76079107D01*
X92214627Y-76079448D01*
X92068837Y-76089272D01*
X91984379Y-76106135D01*
X91944459Y-76134949D01*
X91934642Y-76161320D01*
X91456801Y-76161320D01*
X91458769Y-76149692D01*
X91450214Y-76106041D01*
X91412633Y-76082455D01*
X91328155Y-76072975D01*
X91224307Y-76071538D01*
X91100785Y-76067103D01*
X91016108Y-76055574D01*
X90990553Y-76042230D01*
X90998816Y-75995035D01*
X91020907Y-75886839D01*
X91053623Y-75732916D01*
X91093760Y-75548541D01*
X91100983Y-75515753D01*
X91210706Y-75018583D01*
X90898604Y-74881135D01*
X92064461Y-74881135D01*
X92065593Y-75033018D01*
X92072934Y-75147788D01*
X92092400Y-75247044D01*
X92129906Y-75352379D01*
X92191370Y-75485392D01*
X92276648Y-75655692D01*
X92367240Y-75832780D01*
X92432443Y-75951021D01*
X92481300Y-76021730D01*
X92522849Y-76056221D01*
X92566133Y-76065807D01*
X92602688Y-76063720D01*
X92647130Y-76056417D01*
X92682552Y-76037374D01*
X92714471Y-75995201D01*
X92748403Y-75918510D01*
X92789865Y-75795911D01*
X92844374Y-75616017D01*
X92882836Y-75485384D01*
X92974849Y-75172640D01*
X93047706Y-74927185D01*
X93103914Y-74741216D01*
X93145976Y-74606928D01*
X93176395Y-74516518D01*
X93197677Y-74462183D01*
X93212325Y-74436118D01*
X93221383Y-74430362D01*
X93239590Y-74466070D01*
X93275933Y-74565916D01*
X93326958Y-74718924D01*
X93389209Y-74914118D01*
X93459234Y-75140524D01*
X93533577Y-75387165D01*
X93608785Y-75643066D01*
X93667187Y-75846846D01*
X93706078Y-75972542D01*
X93741045Y-76039988D01*
X93786019Y-76067018D01*
X93842702Y-76071538D01*
X93893967Y-76065968D01*
X93938781Y-76041380D01*
X93986571Y-75985957D01*
X94046767Y-75887881D01*
X94128796Y-75735336D01*
X94162280Y-75671000D01*
X94369930Y-75270461D01*
X94369965Y-74879692D01*
X94367857Y-74692353D01*
X94358442Y-74558585D01*
X94337139Y-74453854D01*
X94299367Y-74353624D01*
X94254378Y-74260515D01*
X94188429Y-74152284D01*
X94097859Y-74031665D01*
X93995626Y-73912479D01*
X93894687Y-73808550D01*
X93808000Y-73733698D01*
X93748523Y-73701746D01*
X93733858Y-73705269D01*
X93746704Y-73742349D01*
X93800570Y-73816959D01*
X93854827Y-73880437D01*
X94008653Y-74070650D01*
X94105921Y-74248679D01*
X94157329Y-74442146D01*
X94173574Y-74678677D01*
X94173677Y-74703846D01*
X94169089Y-74890278D01*
X94152358Y-75024538D01*
X94119032Y-75132231D01*
X94087887Y-75197257D01*
X94014224Y-75310679D01*
X93943610Y-75377460D01*
X93887851Y-75389169D01*
X93863193Y-75357725D01*
X93846612Y-75301103D01*
X93814564Y-75188112D01*
X93772406Y-75037715D01*
X93744734Y-74938307D01*
X93684050Y-74725073D01*
X93612116Y-74480202D01*
X93541559Y-74246472D01*
X93519866Y-74176307D01*
X93398069Y-73785538D01*
X93315178Y-74057757D01*
X93272695Y-74183606D01*
X93236096Y-74267662D01*
X93212302Y-74294495D01*
X93210006Y-74292218D01*
X93187966Y-74236826D01*
X93153144Y-74130912D01*
X93119727Y-74020000D01*
X93095809Y-73936138D01*
X93076227Y-73876380D01*
X93057637Y-73847076D01*
X93036693Y-73854576D01*
X93010050Y-73905229D01*
X92974362Y-74005386D01*
X92926285Y-74161398D01*
X92862473Y-74379613D01*
X92780047Y-74664769D01*
X92715203Y-74885034D01*
X92655893Y-75079515D01*
X92606122Y-75235630D01*
X92569892Y-75340797D01*
X92551879Y-75381830D01*
X92504346Y-75387793D01*
X92442748Y-75333352D01*
X92377239Y-75232415D01*
X92317970Y-75098884D01*
X92295832Y-75031152D01*
X92248039Y-74735318D01*
X92276462Y-74448694D01*
X92379168Y-74179487D01*
X92553402Y-73936800D01*
X92650275Y-73828484D01*
X92697693Y-73764549D01*
X92701627Y-73734273D01*
X92670266Y-73726923D01*
X92599075Y-73758123D01*
X92502877Y-73841137D01*
X92395722Y-73960086D01*
X92291662Y-74099089D01*
X92204747Y-74242268D01*
X92191839Y-74267600D01*
X92129259Y-74402420D01*
X92091272Y-74513863D01*
X92071869Y-74630876D01*
X92065039Y-74782410D01*
X92064461Y-74881135D01*
X90898604Y-74881135D01*
X90484814Y-74698905D01*
X90253946Y-74595938D01*
X90038878Y-74497618D01*
X89853213Y-74410350D01*
X89710550Y-74340538D01*
X89624492Y-74294586D01*
X89618914Y-74291168D01*
X89451884Y-74159850D01*
X89326659Y-74008697D01*
X89258588Y-73856968D01*
X89253917Y-73833234D01*
X89247984Y-73767214D01*
X89239397Y-73632275D01*
X89228619Y-73437589D01*
X89216114Y-73192329D01*
X89202344Y-72905666D01*
X89187773Y-72586773D01*
X89172864Y-72244824D01*
X89170626Y-72191898D01*
X90208689Y-72191898D01*
X90247455Y-72469428D01*
X90360342Y-72733789D01*
X90543663Y-72979166D01*
X90793734Y-73199746D01*
X90889335Y-73265495D01*
X91217236Y-73438051D01*
X91551772Y-73538606D01*
X91885296Y-73566942D01*
X92210160Y-73522843D01*
X92518715Y-73406091D01*
X92671078Y-73315993D01*
X92778063Y-73245126D01*
X92855606Y-73195885D01*
X92884794Y-73179846D01*
X92898855Y-73214742D01*
X92925483Y-73306888D01*
X92959297Y-73437467D01*
X92964450Y-73458363D01*
X93002762Y-73601183D01*
X93033691Y-73670638D01*
X93062995Y-73665918D01*
X93096434Y-73586214D01*
X93138957Y-73433846D01*
X93172642Y-73316682D01*
X93202903Y-73232308D01*
X93215400Y-73208929D01*
X93236520Y-73229090D01*
X93269198Y-73309183D01*
X93307098Y-73433059D01*
X93315076Y-73462929D01*
X93389026Y-73746461D01*
X93459938Y-73512000D01*
X93500221Y-73380389D01*
X93533150Y-73275610D01*
X93549113Y-73227512D01*
X93584502Y-73214169D01*
X93666914Y-73250625D01*
X93768380Y-73315752D01*
X94061767Y-73471969D01*
X94377182Y-73556137D01*
X94705143Y-73567727D01*
X95036169Y-73506213D01*
X95302542Y-73401198D01*
X95614657Y-73217356D01*
X95868517Y-73005842D01*
X96060135Y-72772691D01*
X96185526Y-72523937D01*
X96240703Y-72265614D01*
X96222651Y-72008229D01*
X96129447Y-71753611D01*
X95971173Y-71530065D01*
X95759344Y-71353093D01*
X95717113Y-71327775D01*
X95618393Y-71274310D01*
X95534102Y-71239398D01*
X95443252Y-71219102D01*
X95324854Y-71209484D01*
X95157917Y-71206607D01*
X95070438Y-71206461D01*
X94879804Y-71207408D01*
X94743103Y-71213747D01*
X94636113Y-71230724D01*
X94534613Y-71263584D01*
X94414382Y-71317573D01*
X94301604Y-71372977D01*
X94043621Y-71523309D01*
X93831266Y-71700782D01*
X93656321Y-71916604D01*
X93510564Y-72181985D01*
X93385779Y-72508133D01*
X93327655Y-72701154D01*
X93284479Y-72846589D01*
X93246803Y-72957923D01*
X93220682Y-73017843D01*
X93214887Y-73023538D01*
X93195943Y-72988454D01*
X93166125Y-72895572D01*
X93131243Y-72763445D01*
X93124145Y-72733832D01*
X93042864Y-72461385D01*
X92932029Y-72191935D01*
X92803076Y-71949535D01*
X92667438Y-71758235D01*
X92651917Y-71740587D01*
X92389777Y-71507364D01*
X92083540Y-71333988D01*
X91744829Y-71225501D01*
X91385267Y-71186947D01*
X91375963Y-71186923D01*
X91069454Y-71210393D01*
X90815387Y-71283578D01*
X90602700Y-71410636D01*
X90482512Y-71522880D01*
X90335791Y-71707030D01*
X90249335Y-71885655D01*
X90212210Y-72085465D01*
X90208689Y-72191898D01*
X89170626Y-72191898D01*
X89168613Y-72144307D01*
X89102963Y-70581230D01*
X89191064Y-70377147D01*
X89228405Y-70301133D01*
X89277571Y-70226043D01*
X89347183Y-70142926D01*
X89445859Y-70042829D01*
X89582220Y-69916800D01*
X89764887Y-69755886D01*
X89909813Y-69630684D01*
X90208378Y-69376462D01*
X90491592Y-69140231D01*
X90752238Y-68927717D01*
X90983103Y-68744647D01*
X91176969Y-68596747D01*
X91326622Y-68489743D01*
X91421294Y-68431171D01*
X91459898Y-68416755D01*
X91519423Y-68404867D01*
X91606842Y-68395280D01*
X91729132Y-68387768D01*
X91893266Y-68382104D01*
X92106218Y-68378062D01*
X92374964Y-68375415D01*
X92706479Y-68373936D01*
X93107736Y-68373399D01*
X93199488Y-68373384D01*
X93603846Y-68373465D01*
G04 #@! TO.C,SW14*
D16*
X94690476Y-126904761D02*
X94833333Y-126952380D01*
X95071428Y-126952380D01*
X95166666Y-126904761D01*
X95214285Y-126857142D01*
X95261904Y-126761904D01*
X95261904Y-126666666D01*
X95214285Y-126571428D01*
X95166666Y-126523809D01*
X95071428Y-126476190D01*
X94880952Y-126428571D01*
X94785714Y-126380952D01*
X94738095Y-126333333D01*
X94690476Y-126238095D01*
X94690476Y-126142857D01*
X94738095Y-126047619D01*
X94785714Y-126000000D01*
X94880952Y-125952380D01*
X95119047Y-125952380D01*
X95261904Y-126000000D01*
X95595238Y-125952380D02*
X95833333Y-126952380D01*
X96023809Y-126238095D01*
X96214285Y-126952380D01*
X96452380Y-125952380D01*
X97357142Y-126952380D02*
X96785714Y-126952380D01*
X97071428Y-126952380D02*
X97071428Y-125952380D01*
X96976190Y-126095238D01*
X96880952Y-126190476D01*
X96785714Y-126238095D01*
X98214285Y-126285714D02*
X98214285Y-126952380D01*
X97976190Y-125904761D02*
X97738095Y-126619047D01*
X98357142Y-126619047D01*
G04 #@! TO.C,RV1*
X132804761Y-73152380D02*
X132471428Y-72676190D01*
X132233333Y-73152380D02*
X132233333Y-72152380D01*
X132614285Y-72152380D01*
X132709523Y-72200000D01*
X132757142Y-72247619D01*
X132804761Y-72342857D01*
X132804761Y-72485714D01*
X132757142Y-72580952D01*
X132709523Y-72628571D01*
X132614285Y-72676190D01*
X132233333Y-72676190D01*
X133090476Y-72152380D02*
X133423809Y-73152380D01*
X133757142Y-72152380D01*
X134614285Y-73152380D02*
X134042857Y-73152380D01*
X134328571Y-73152380D02*
X134328571Y-72152380D01*
X134233333Y-72295238D01*
X134138095Y-72390476D01*
X134042857Y-72438095D01*
G04 #@! TO.C,FSR1*
X80928571Y-103909523D02*
X80928571Y-104242857D01*
X81452380Y-104242857D02*
X80452380Y-104242857D01*
X80452380Y-103766666D01*
X81404761Y-103433333D02*
X81452380Y-103290476D01*
X81452380Y-103052380D01*
X81404761Y-102957142D01*
X81357142Y-102909523D01*
X81261904Y-102861904D01*
X81166666Y-102861904D01*
X81071428Y-102909523D01*
X81023809Y-102957142D01*
X80976190Y-103052380D01*
X80928571Y-103242857D01*
X80880952Y-103338095D01*
X80833333Y-103385714D01*
X80738095Y-103433333D01*
X80642857Y-103433333D01*
X80547619Y-103385714D01*
X80500000Y-103338095D01*
X80452380Y-103242857D01*
X80452380Y-103004761D01*
X80500000Y-102861904D01*
X81452380Y-101861904D02*
X80976190Y-102195238D01*
X81452380Y-102433333D02*
X80452380Y-102433333D01*
X80452380Y-102052380D01*
X80500000Y-101957142D01*
X80547619Y-101909523D01*
X80642857Y-101861904D01*
X80785714Y-101861904D01*
X80880952Y-101909523D01*
X80928571Y-101957142D01*
X80976190Y-102052380D01*
X80976190Y-102433333D01*
X81452380Y-100909523D02*
X81452380Y-101480952D01*
X81452380Y-101195238D02*
X80452380Y-101195238D01*
X80595238Y-101290476D01*
X80690476Y-101385714D01*
X80738095Y-101480952D01*
G04 #@! TO.C,J2*
X128246666Y-101862380D02*
X128246666Y-102576666D01*
X128199047Y-102719523D01*
X128103809Y-102814761D01*
X127960952Y-102862380D01*
X127865714Y-102862380D01*
X128675238Y-101957619D02*
X128722857Y-101910000D01*
X128818095Y-101862380D01*
X129056190Y-101862380D01*
X129151428Y-101910000D01*
X129199047Y-101957619D01*
X129246666Y-102052857D01*
X129246666Y-102148095D01*
X129199047Y-102290952D01*
X128627619Y-102862380D01*
X129246666Y-102862380D01*
G04 #@! TO.C,J5*
X113226666Y-69877380D02*
X113226666Y-70591666D01*
X113179047Y-70734523D01*
X113083809Y-70829761D01*
X112940952Y-70877380D01*
X112845714Y-70877380D01*
X114179047Y-69877380D02*
X113702857Y-69877380D01*
X113655238Y-70353571D01*
X113702857Y-70305952D01*
X113798095Y-70258333D01*
X114036190Y-70258333D01*
X114131428Y-70305952D01*
X114179047Y-70353571D01*
X114226666Y-70448809D01*
X114226666Y-70686904D01*
X114179047Y-70782142D01*
X114131428Y-70829761D01*
X114036190Y-70877380D01*
X113798095Y-70877380D01*
X113702857Y-70829761D01*
X113655238Y-70782142D01*
G04 #@! TO.C,JS1*
X108490476Y-98302380D02*
X108490476Y-99016666D01*
X108442857Y-99159523D01*
X108347619Y-99254761D01*
X108204761Y-99302380D01*
X108109523Y-99302380D01*
X108919047Y-99254761D02*
X109061904Y-99302380D01*
X109300000Y-99302380D01*
X109395238Y-99254761D01*
X109442857Y-99207142D01*
X109490476Y-99111904D01*
X109490476Y-99016666D01*
X109442857Y-98921428D01*
X109395238Y-98873809D01*
X109300000Y-98826190D01*
X109109523Y-98778571D01*
X109014285Y-98730952D01*
X108966666Y-98683333D01*
X108919047Y-98588095D01*
X108919047Y-98492857D01*
X108966666Y-98397619D01*
X109014285Y-98350000D01*
X109109523Y-98302380D01*
X109347619Y-98302380D01*
X109490476Y-98350000D01*
X110442857Y-99302380D02*
X109871428Y-99302380D01*
X110157142Y-99302380D02*
X110157142Y-98302380D01*
X110061904Y-98445238D01*
X109966666Y-98540476D01*
X109871428Y-98588095D01*
G04 #@! TO.C,MK1*
X84490476Y-70612380D02*
X84490476Y-69612380D01*
X84823809Y-70326666D01*
X85157142Y-69612380D01*
X85157142Y-70612380D01*
X85633333Y-70612380D02*
X85633333Y-69612380D01*
X86204761Y-70612380D02*
X85776190Y-70040952D01*
X86204761Y-69612380D02*
X85633333Y-70183809D01*
X87157142Y-70612380D02*
X86585714Y-70612380D01*
X86871428Y-70612380D02*
X86871428Y-69612380D01*
X86776190Y-69755238D01*
X86680952Y-69850476D01*
X86585714Y-69898095D01*
G04 #@! TO.C,MK2*
X151890476Y-70302380D02*
X151890476Y-69302380D01*
X152223809Y-70016666D01*
X152557142Y-69302380D01*
X152557142Y-70302380D01*
X153033333Y-70302380D02*
X153033333Y-69302380D01*
X153604761Y-70302380D02*
X153176190Y-69730952D01*
X153604761Y-69302380D02*
X153033333Y-69873809D01*
X153985714Y-69397619D02*
X154033333Y-69350000D01*
X154128571Y-69302380D01*
X154366666Y-69302380D01*
X154461904Y-69350000D01*
X154509523Y-69397619D01*
X154557142Y-69492857D01*
X154557142Y-69588095D01*
X154509523Y-69730952D01*
X153938095Y-70302380D01*
X154557142Y-70302380D01*
G04 #@! TO.C,MK3*
X209690476Y-70952380D02*
X209690476Y-69952380D01*
X210023809Y-70666666D01*
X210357142Y-69952380D01*
X210357142Y-70952380D01*
X210833333Y-70952380D02*
X210833333Y-69952380D01*
X211404761Y-70952380D02*
X210976190Y-70380952D01*
X211404761Y-69952380D02*
X210833333Y-70523809D01*
X211738095Y-69952380D02*
X212357142Y-69952380D01*
X212023809Y-70333333D01*
X212166666Y-70333333D01*
X212261904Y-70380952D01*
X212309523Y-70428571D01*
X212357142Y-70523809D01*
X212357142Y-70761904D01*
X212309523Y-70857142D01*
X212261904Y-70904761D01*
X212166666Y-70952380D01*
X211880952Y-70952380D01*
X211785714Y-70904761D01*
X211738095Y-70857142D01*
G04 #@! TO.C,MK4*
X209350476Y-140772380D02*
X209350476Y-139772380D01*
X209683809Y-140486666D01*
X210017142Y-139772380D01*
X210017142Y-140772380D01*
X210493333Y-140772380D02*
X210493333Y-139772380D01*
X211064761Y-140772380D02*
X210636190Y-140200952D01*
X211064761Y-139772380D02*
X210493333Y-140343809D01*
X211921904Y-140105714D02*
X211921904Y-140772380D01*
X211683809Y-139724761D02*
X211445714Y-140439047D01*
X212064761Y-140439047D01*
G04 #@! TO.C,MK5*
X152230476Y-140482380D02*
X152230476Y-139482380D01*
X152563809Y-140196666D01*
X152897142Y-139482380D01*
X152897142Y-140482380D01*
X153373333Y-140482380D02*
X153373333Y-139482380D01*
X153944761Y-140482380D02*
X153516190Y-139910952D01*
X153944761Y-139482380D02*
X153373333Y-140053809D01*
X154849523Y-139482380D02*
X154373333Y-139482380D01*
X154325714Y-139958571D01*
X154373333Y-139910952D01*
X154468571Y-139863333D01*
X154706666Y-139863333D01*
X154801904Y-139910952D01*
X154849523Y-139958571D01*
X154897142Y-140053809D01*
X154897142Y-140291904D01*
X154849523Y-140387142D01*
X154801904Y-140434761D01*
X154706666Y-140482380D01*
X154468571Y-140482380D01*
X154373333Y-140434761D01*
X154325714Y-140387142D01*
G04 #@! TO.C,MK6*
X85000476Y-141182380D02*
X85000476Y-140182380D01*
X85333809Y-140896666D01*
X85667142Y-140182380D01*
X85667142Y-141182380D01*
X86143333Y-141182380D02*
X86143333Y-140182380D01*
X86714761Y-141182380D02*
X86286190Y-140610952D01*
X86714761Y-140182380D02*
X86143333Y-140753809D01*
X87571904Y-140182380D02*
X87381428Y-140182380D01*
X87286190Y-140230000D01*
X87238571Y-140277619D01*
X87143333Y-140420476D01*
X87095714Y-140610952D01*
X87095714Y-140991904D01*
X87143333Y-141087142D01*
X87190952Y-141134761D01*
X87286190Y-141182380D01*
X87476666Y-141182380D01*
X87571904Y-141134761D01*
X87619523Y-141087142D01*
X87667142Y-140991904D01*
X87667142Y-140753809D01*
X87619523Y-140658571D01*
X87571904Y-140610952D01*
X87476666Y-140563333D01*
X87286190Y-140563333D01*
X87190952Y-140610952D01*
X87143333Y-140658571D01*
X87095714Y-140753809D01*
G04 #@! TO.C,MK7*
X79940476Y-79202380D02*
X79940476Y-78202380D01*
X80273809Y-78916666D01*
X80607142Y-78202380D01*
X80607142Y-79202380D01*
X81083333Y-79202380D02*
X81083333Y-78202380D01*
X81654761Y-79202380D02*
X81226190Y-78630952D01*
X81654761Y-78202380D02*
X81083333Y-78773809D01*
X81988095Y-78202380D02*
X82654761Y-78202380D01*
X82226190Y-79202380D01*
G04 #@! TO.C,MK8*
X79940476Y-95202380D02*
X79940476Y-94202380D01*
X80273809Y-94916666D01*
X80607142Y-94202380D01*
X80607142Y-95202380D01*
X81083333Y-95202380D02*
X81083333Y-94202380D01*
X81654761Y-95202380D02*
X81226190Y-94630952D01*
X81654761Y-94202380D02*
X81083333Y-94773809D01*
X82226190Y-94630952D02*
X82130952Y-94583333D01*
X82083333Y-94535714D01*
X82035714Y-94440476D01*
X82035714Y-94392857D01*
X82083333Y-94297619D01*
X82130952Y-94250000D01*
X82226190Y-94202380D01*
X82416666Y-94202380D01*
X82511904Y-94250000D01*
X82559523Y-94297619D01*
X82607142Y-94392857D01*
X82607142Y-94440476D01*
X82559523Y-94535714D01*
X82511904Y-94583333D01*
X82416666Y-94630952D01*
X82226190Y-94630952D01*
X82130952Y-94678571D01*
X82083333Y-94726190D01*
X82035714Y-94821428D01*
X82035714Y-95011904D01*
X82083333Y-95107142D01*
X82130952Y-95154761D01*
X82226190Y-95202380D01*
X82416666Y-95202380D01*
X82511904Y-95154761D01*
X82559523Y-95107142D01*
X82607142Y-95011904D01*
X82607142Y-94821428D01*
X82559523Y-94726190D01*
X82511904Y-94678571D01*
X82416666Y-94630952D01*
G04 #@! TO.C,MK9*
X80090476Y-110452380D02*
X80090476Y-109452380D01*
X80423809Y-110166666D01*
X80757142Y-109452380D01*
X80757142Y-110452380D01*
X81233333Y-110452380D02*
X81233333Y-109452380D01*
X81804761Y-110452380D02*
X81376190Y-109880952D01*
X81804761Y-109452380D02*
X81233333Y-110023809D01*
X82280952Y-110452380D02*
X82471428Y-110452380D01*
X82566666Y-110404761D01*
X82614285Y-110357142D01*
X82709523Y-110214285D01*
X82757142Y-110023809D01*
X82757142Y-109642857D01*
X82709523Y-109547619D01*
X82661904Y-109500000D01*
X82566666Y-109452380D01*
X82376190Y-109452380D01*
X82280952Y-109500000D01*
X82233333Y-109547619D01*
X82185714Y-109642857D01*
X82185714Y-109880952D01*
X82233333Y-109976190D01*
X82280952Y-110023809D01*
X82376190Y-110071428D01*
X82566666Y-110071428D01*
X82661904Y-110023809D01*
X82709523Y-109976190D01*
X82757142Y-109880952D01*
G04 #@! TO.C,MK10*
X79914285Y-132452380D02*
X79914285Y-131452380D01*
X80247619Y-132166666D01*
X80580952Y-131452380D01*
X80580952Y-132452380D01*
X81057142Y-132452380D02*
X81057142Y-131452380D01*
X81628571Y-132452380D02*
X81200000Y-131880952D01*
X81628571Y-131452380D02*
X81057142Y-132023809D01*
X82580952Y-132452380D02*
X82009523Y-132452380D01*
X82295238Y-132452380D02*
X82295238Y-131452380D01*
X82200000Y-131595238D01*
X82104761Y-131690476D01*
X82009523Y-131738095D01*
X83200000Y-131452380D02*
X83295238Y-131452380D01*
X83390476Y-131500000D01*
X83438095Y-131547619D01*
X83485714Y-131642857D01*
X83533333Y-131833333D01*
X83533333Y-132071428D01*
X83485714Y-132261904D01*
X83438095Y-132357142D01*
X83390476Y-132404761D01*
X83295238Y-132452380D01*
X83200000Y-132452380D01*
X83104761Y-132404761D01*
X83057142Y-132357142D01*
X83009523Y-132261904D01*
X82961904Y-132071428D01*
X82961904Y-131833333D01*
X83009523Y-131642857D01*
X83057142Y-131547619D01*
X83104761Y-131500000D01*
X83200000Y-131452380D01*
G04 #@! TO.C,MK11*
X213814285Y-126552380D02*
X213814285Y-125552380D01*
X214147619Y-126266666D01*
X214480952Y-125552380D01*
X214480952Y-126552380D01*
X214957142Y-126552380D02*
X214957142Y-125552380D01*
X215528571Y-126552380D02*
X215100000Y-125980952D01*
X215528571Y-125552380D02*
X214957142Y-126123809D01*
X216480952Y-126552380D02*
X215909523Y-126552380D01*
X216195238Y-126552380D02*
X216195238Y-125552380D01*
X216100000Y-125695238D01*
X216004761Y-125790476D01*
X215909523Y-125838095D01*
X217433333Y-126552380D02*
X216861904Y-126552380D01*
X217147619Y-126552380D02*
X217147619Y-125552380D01*
X217052380Y-125695238D01*
X216957142Y-125790476D01*
X216861904Y-125838095D01*
G04 #@! TO.C,MK12*
X213814285Y-110652380D02*
X213814285Y-109652380D01*
X214147619Y-110366666D01*
X214480952Y-109652380D01*
X214480952Y-110652380D01*
X214957142Y-110652380D02*
X214957142Y-109652380D01*
X215528571Y-110652380D02*
X215100000Y-110080952D01*
X215528571Y-109652380D02*
X214957142Y-110223809D01*
X216480952Y-110652380D02*
X215909523Y-110652380D01*
X216195238Y-110652380D02*
X216195238Y-109652380D01*
X216100000Y-109795238D01*
X216004761Y-109890476D01*
X215909523Y-109938095D01*
X216861904Y-109747619D02*
X216909523Y-109700000D01*
X217004761Y-109652380D01*
X217242857Y-109652380D01*
X217338095Y-109700000D01*
X217385714Y-109747619D01*
X217433333Y-109842857D01*
X217433333Y-109938095D01*
X217385714Y-110080952D01*
X216814285Y-110652380D01*
X217433333Y-110652380D01*
G04 #@! TO.C,MK13*
X213714285Y-100452380D02*
X213714285Y-99452380D01*
X214047619Y-100166666D01*
X214380952Y-99452380D01*
X214380952Y-100452380D01*
X214857142Y-100452380D02*
X214857142Y-99452380D01*
X215428571Y-100452380D02*
X215000000Y-99880952D01*
X215428571Y-99452380D02*
X214857142Y-100023809D01*
X216380952Y-100452380D02*
X215809523Y-100452380D01*
X216095238Y-100452380D02*
X216095238Y-99452380D01*
X216000000Y-99595238D01*
X215904761Y-99690476D01*
X215809523Y-99738095D01*
X216714285Y-99452380D02*
X217333333Y-99452380D01*
X217000000Y-99833333D01*
X217142857Y-99833333D01*
X217238095Y-99880952D01*
X217285714Y-99928571D01*
X217333333Y-100023809D01*
X217333333Y-100261904D01*
X217285714Y-100357142D01*
X217238095Y-100404761D01*
X217142857Y-100452380D01*
X216857142Y-100452380D01*
X216761904Y-100404761D01*
X216714285Y-100357142D01*
G04 #@! TO.C,MK14*
X213414285Y-78852380D02*
X213414285Y-77852380D01*
X213747619Y-78566666D01*
X214080952Y-77852380D01*
X214080952Y-78852380D01*
X214557142Y-78852380D02*
X214557142Y-77852380D01*
X215128571Y-78852380D02*
X214700000Y-78280952D01*
X215128571Y-77852380D02*
X214557142Y-78423809D01*
X216080952Y-78852380D02*
X215509523Y-78852380D01*
X215795238Y-78852380D02*
X215795238Y-77852380D01*
X215700000Y-77995238D01*
X215604761Y-78090476D01*
X215509523Y-78138095D01*
X216938095Y-78185714D02*
X216938095Y-78852380D01*
X216700000Y-77804761D02*
X216461904Y-78519047D01*
X217080952Y-78519047D01*
G04 #@! TO.C,RGB1*
X183333333Y-74452380D02*
X183000000Y-73976190D01*
X182761904Y-74452380D02*
X182761904Y-73452380D01*
X183142857Y-73452380D01*
X183238095Y-73500000D01*
X183285714Y-73547619D01*
X183333333Y-73642857D01*
X183333333Y-73785714D01*
X183285714Y-73880952D01*
X183238095Y-73928571D01*
X183142857Y-73976190D01*
X182761904Y-73976190D01*
X184285714Y-73500000D02*
X184190476Y-73452380D01*
X184047619Y-73452380D01*
X183904761Y-73500000D01*
X183809523Y-73595238D01*
X183761904Y-73690476D01*
X183714285Y-73880952D01*
X183714285Y-74023809D01*
X183761904Y-74214285D01*
X183809523Y-74309523D01*
X183904761Y-74404761D01*
X184047619Y-74452380D01*
X184142857Y-74452380D01*
X184285714Y-74404761D01*
X184333333Y-74357142D01*
X184333333Y-74023809D01*
X184142857Y-74023809D01*
X185095238Y-73928571D02*
X185238095Y-73976190D01*
X185285714Y-74023809D01*
X185333333Y-74119047D01*
X185333333Y-74261904D01*
X185285714Y-74357142D01*
X185238095Y-74404761D01*
X185142857Y-74452380D01*
X184761904Y-74452380D01*
X184761904Y-73452380D01*
X185095238Y-73452380D01*
X185190476Y-73500000D01*
X185238095Y-73547619D01*
X185285714Y-73642857D01*
X185285714Y-73738095D01*
X185238095Y-73833333D01*
X185190476Y-73880952D01*
X185095238Y-73928571D01*
X184761904Y-73928571D01*
X186285714Y-74452380D02*
X185714285Y-74452380D01*
X186000000Y-74452380D02*
X186000000Y-73452380D01*
X185904761Y-73595238D01*
X185809523Y-73690476D01*
X185714285Y-73738095D01*
G04 #@! TO.C,W1*
X84195238Y-84452380D02*
X84433333Y-85452380D01*
X84623809Y-84738095D01*
X84814285Y-85452380D01*
X85052380Y-84452380D01*
X85957142Y-85452380D02*
X85385714Y-85452380D01*
X85671428Y-85452380D02*
X85671428Y-84452380D01*
X85576190Y-84595238D01*
X85480952Y-84690476D01*
X85385714Y-84738095D01*
G04 #@! TO.C,W2*
X211095238Y-84252380D02*
X211333333Y-85252380D01*
X211523809Y-84538095D01*
X211714285Y-85252380D01*
X211952380Y-84252380D01*
X212285714Y-84347619D02*
X212333333Y-84300000D01*
X212428571Y-84252380D01*
X212666666Y-84252380D01*
X212761904Y-84300000D01*
X212809523Y-84347619D01*
X212857142Y-84442857D01*
X212857142Y-84538095D01*
X212809523Y-84680952D01*
X212238095Y-85252380D01*
X212857142Y-85252380D01*
G04 #@! TO.C,D2*
X193247380Y-102763095D02*
X192247380Y-102763095D01*
X192247380Y-102525000D01*
X192295000Y-102382142D01*
X192390238Y-102286904D01*
X192485476Y-102239285D01*
X192675952Y-102191666D01*
X192818809Y-102191666D01*
X193009285Y-102239285D01*
X193104523Y-102286904D01*
X193199761Y-102382142D01*
X193247380Y-102525000D01*
X193247380Y-102763095D01*
X192342619Y-101810714D02*
X192295000Y-101763095D01*
X192247380Y-101667857D01*
X192247380Y-101429761D01*
X192295000Y-101334523D01*
X192342619Y-101286904D01*
X192437857Y-101239285D01*
X192533095Y-101239285D01*
X192675952Y-101286904D01*
X193247380Y-101858333D01*
X193247380Y-101239285D01*
G04 #@! TO.C,D3*
X180797380Y-90238095D02*
X179797380Y-90238095D01*
X179797380Y-90000000D01*
X179845000Y-89857142D01*
X179940238Y-89761904D01*
X180035476Y-89714285D01*
X180225952Y-89666666D01*
X180368809Y-89666666D01*
X180559285Y-89714285D01*
X180654523Y-89761904D01*
X180749761Y-89857142D01*
X180797380Y-90000000D01*
X180797380Y-90238095D01*
X179797380Y-89333333D02*
X179797380Y-88714285D01*
X180178333Y-89047619D01*
X180178333Y-88904761D01*
X180225952Y-88809523D01*
X180273571Y-88761904D01*
X180368809Y-88714285D01*
X180606904Y-88714285D01*
X180702142Y-88761904D01*
X180749761Y-88809523D01*
X180797380Y-88904761D01*
X180797380Y-89190476D01*
X180749761Y-89285714D01*
X180702142Y-89333333D01*
G04 #@! TO.C,D4*
X193247380Y-77838095D02*
X192247380Y-77838095D01*
X192247380Y-77600000D01*
X192295000Y-77457142D01*
X192390238Y-77361904D01*
X192485476Y-77314285D01*
X192675952Y-77266666D01*
X192818809Y-77266666D01*
X193009285Y-77314285D01*
X193104523Y-77361904D01*
X193199761Y-77457142D01*
X193247380Y-77600000D01*
X193247380Y-77838095D01*
X192580714Y-76409523D02*
X193247380Y-76409523D01*
X192199761Y-76647619D02*
X192914047Y-76885714D01*
X192914047Y-76266666D01*
G04 #@! TO.C,D5*
X205697380Y-90263095D02*
X204697380Y-90263095D01*
X204697380Y-90025000D01*
X204745000Y-89882142D01*
X204840238Y-89786904D01*
X204935476Y-89739285D01*
X205125952Y-89691666D01*
X205268809Y-89691666D01*
X205459285Y-89739285D01*
X205554523Y-89786904D01*
X205649761Y-89882142D01*
X205697380Y-90025000D01*
X205697380Y-90263095D01*
X204697380Y-88786904D02*
X204697380Y-89263095D01*
X205173571Y-89310714D01*
X205125952Y-89263095D01*
X205078333Y-89167857D01*
X205078333Y-88929761D01*
X205125952Y-88834523D01*
X205173571Y-88786904D01*
X205268809Y-88739285D01*
X205506904Y-88739285D01*
X205602142Y-88786904D01*
X205649761Y-88834523D01*
X205697380Y-88929761D01*
X205697380Y-89167857D01*
X205649761Y-89263095D01*
X205602142Y-89310714D01*
G04 #@! TO.C,D6*
X162762380Y-118438095D02*
X161762380Y-118438095D01*
X161762380Y-118200000D01*
X161810000Y-118057142D01*
X161905238Y-117961904D01*
X162000476Y-117914285D01*
X162190952Y-117866666D01*
X162333809Y-117866666D01*
X162524285Y-117914285D01*
X162619523Y-117961904D01*
X162714761Y-118057142D01*
X162762380Y-118200000D01*
X162762380Y-118438095D01*
X161762380Y-117009523D02*
X161762380Y-117200000D01*
X161810000Y-117295238D01*
X161857619Y-117342857D01*
X162000476Y-117438095D01*
X162190952Y-117485714D01*
X162571904Y-117485714D01*
X162667142Y-117438095D01*
X162714761Y-117390476D01*
X162762380Y-117295238D01*
X162762380Y-117104761D01*
X162714761Y-117009523D01*
X162667142Y-116961904D01*
X162571904Y-116914285D01*
X162333809Y-116914285D01*
X162238571Y-116961904D01*
X162190952Y-117009523D01*
X162143333Y-117104761D01*
X162143333Y-117295238D01*
X162190952Y-117390476D01*
X162238571Y-117438095D01*
X162333809Y-117485714D01*
G04 #@! TO.C,D7*
X178002380Y-118478095D02*
X177002380Y-118478095D01*
X177002380Y-118240000D01*
X177050000Y-118097142D01*
X177145238Y-118001904D01*
X177240476Y-117954285D01*
X177430952Y-117906666D01*
X177573809Y-117906666D01*
X177764285Y-117954285D01*
X177859523Y-118001904D01*
X177954761Y-118097142D01*
X178002380Y-118240000D01*
X178002380Y-118478095D01*
X177002380Y-117573333D02*
X177002380Y-116906666D01*
X178002380Y-117335238D01*
G04 #@! TO.C,D8*
X193242380Y-118448095D02*
X192242380Y-118448095D01*
X192242380Y-118210000D01*
X192290000Y-118067142D01*
X192385238Y-117971904D01*
X192480476Y-117924285D01*
X192670952Y-117876666D01*
X192813809Y-117876666D01*
X193004285Y-117924285D01*
X193099523Y-117971904D01*
X193194761Y-118067142D01*
X193242380Y-118210000D01*
X193242380Y-118448095D01*
X192670952Y-117305238D02*
X192623333Y-117400476D01*
X192575714Y-117448095D01*
X192480476Y-117495714D01*
X192432857Y-117495714D01*
X192337619Y-117448095D01*
X192290000Y-117400476D01*
X192242380Y-117305238D01*
X192242380Y-117114761D01*
X192290000Y-117019523D01*
X192337619Y-116971904D01*
X192432857Y-116924285D01*
X192480476Y-116924285D01*
X192575714Y-116971904D01*
X192623333Y-117019523D01*
X192670952Y-117114761D01*
X192670952Y-117305238D01*
X192718571Y-117400476D01*
X192766190Y-117448095D01*
X192861428Y-117495714D01*
X193051904Y-117495714D01*
X193147142Y-117448095D01*
X193194761Y-117400476D01*
X193242380Y-117305238D01*
X193242380Y-117114761D01*
X193194761Y-117019523D01*
X193147142Y-116971904D01*
X193051904Y-116924285D01*
X192861428Y-116924285D01*
X192766190Y-116971904D01*
X192718571Y-117019523D01*
X192670952Y-117114761D01*
G04 #@! TO.C,D9*
X208482380Y-118458095D02*
X207482380Y-118458095D01*
X207482380Y-118220000D01*
X207530000Y-118077142D01*
X207625238Y-117981904D01*
X207720476Y-117934285D01*
X207910952Y-117886666D01*
X208053809Y-117886666D01*
X208244285Y-117934285D01*
X208339523Y-117981904D01*
X208434761Y-118077142D01*
X208482380Y-118220000D01*
X208482380Y-118458095D01*
X208482380Y-117410476D02*
X208482380Y-117220000D01*
X208434761Y-117124761D01*
X208387142Y-117077142D01*
X208244285Y-116981904D01*
X208053809Y-116934285D01*
X207672857Y-116934285D01*
X207577619Y-116981904D01*
X207530000Y-117029523D01*
X207482380Y-117124761D01*
X207482380Y-117315238D01*
X207530000Y-117410476D01*
X207577619Y-117458095D01*
X207672857Y-117505714D01*
X207910952Y-117505714D01*
X208006190Y-117458095D01*
X208053809Y-117410476D01*
X208101428Y-117315238D01*
X208101428Y-117124761D01*
X208053809Y-117029523D01*
X208006190Y-116981904D01*
X207910952Y-116934285D01*
G04 #@! TO.C,D10*
X203722380Y-134184285D02*
X202722380Y-134184285D01*
X202722380Y-133946190D01*
X202770000Y-133803333D01*
X202865238Y-133708095D01*
X202960476Y-133660476D01*
X203150952Y-133612857D01*
X203293809Y-133612857D01*
X203484285Y-133660476D01*
X203579523Y-133708095D01*
X203674761Y-133803333D01*
X203722380Y-133946190D01*
X203722380Y-134184285D01*
X203722380Y-132660476D02*
X203722380Y-133231904D01*
X203722380Y-132946190D02*
X202722380Y-132946190D01*
X202865238Y-133041428D01*
X202960476Y-133136666D01*
X203008095Y-133231904D01*
X202722380Y-132041428D02*
X202722380Y-131946190D01*
X202770000Y-131850952D01*
X202817619Y-131803333D01*
X202912857Y-131755714D01*
X203103333Y-131708095D01*
X203341428Y-131708095D01*
X203531904Y-131755714D01*
X203627142Y-131803333D01*
X203674761Y-131850952D01*
X203722380Y-131946190D01*
X203722380Y-132041428D01*
X203674761Y-132136666D01*
X203627142Y-132184285D01*
X203531904Y-132231904D01*
X203341428Y-132279523D01*
X203103333Y-132279523D01*
X202912857Y-132231904D01*
X202817619Y-132184285D01*
X202770000Y-132136666D01*
X202722380Y-132041428D01*
G04 #@! TO.C,D11*
X188482380Y-134174285D02*
X187482380Y-134174285D01*
X187482380Y-133936190D01*
X187530000Y-133793333D01*
X187625238Y-133698095D01*
X187720476Y-133650476D01*
X187910952Y-133602857D01*
X188053809Y-133602857D01*
X188244285Y-133650476D01*
X188339523Y-133698095D01*
X188434761Y-133793333D01*
X188482380Y-133936190D01*
X188482380Y-134174285D01*
X188482380Y-132650476D02*
X188482380Y-133221904D01*
X188482380Y-132936190D02*
X187482380Y-132936190D01*
X187625238Y-133031428D01*
X187720476Y-133126666D01*
X187768095Y-133221904D01*
X188482380Y-131698095D02*
X188482380Y-132269523D01*
X188482380Y-131983809D02*
X187482380Y-131983809D01*
X187625238Y-132079047D01*
X187720476Y-132174285D01*
X187768095Y-132269523D01*
G04 #@! TO.C,D12*
X173242380Y-134174285D02*
X172242380Y-134174285D01*
X172242380Y-133936190D01*
X172290000Y-133793333D01*
X172385238Y-133698095D01*
X172480476Y-133650476D01*
X172670952Y-133602857D01*
X172813809Y-133602857D01*
X173004285Y-133650476D01*
X173099523Y-133698095D01*
X173194761Y-133793333D01*
X173242380Y-133936190D01*
X173242380Y-134174285D01*
X173242380Y-132650476D02*
X173242380Y-133221904D01*
X173242380Y-132936190D02*
X172242380Y-132936190D01*
X172385238Y-133031428D01*
X172480476Y-133126666D01*
X172528095Y-133221904D01*
X172337619Y-132269523D02*
X172290000Y-132221904D01*
X172242380Y-132126666D01*
X172242380Y-131888571D01*
X172290000Y-131793333D01*
X172337619Y-131745714D01*
X172432857Y-131698095D01*
X172528095Y-131698095D01*
X172670952Y-131745714D01*
X173242380Y-132317142D01*
X173242380Y-131698095D01*
G04 #@! TO.C,D13*
X158007380Y-134114285D02*
X157007380Y-134114285D01*
X157007380Y-133876190D01*
X157055000Y-133733333D01*
X157150238Y-133638095D01*
X157245476Y-133590476D01*
X157435952Y-133542857D01*
X157578809Y-133542857D01*
X157769285Y-133590476D01*
X157864523Y-133638095D01*
X157959761Y-133733333D01*
X158007380Y-133876190D01*
X158007380Y-134114285D01*
X158007380Y-132590476D02*
X158007380Y-133161904D01*
X158007380Y-132876190D02*
X157007380Y-132876190D01*
X157150238Y-132971428D01*
X157245476Y-133066666D01*
X157293095Y-133161904D01*
X157007380Y-132257142D02*
X157007380Y-131638095D01*
X157388333Y-131971428D01*
X157388333Y-131828571D01*
X157435952Y-131733333D01*
X157483571Y-131685714D01*
X157578809Y-131638095D01*
X157816904Y-131638095D01*
X157912142Y-131685714D01*
X157959761Y-131733333D01*
X158007380Y-131828571D01*
X158007380Y-132114285D01*
X157959761Y-132209523D01*
X157912142Y-132257142D01*
G04 #@! TO.C,D15*
X101797380Y-118939285D02*
X100797380Y-118939285D01*
X100797380Y-118701190D01*
X100845000Y-118558333D01*
X100940238Y-118463095D01*
X101035476Y-118415476D01*
X101225952Y-118367857D01*
X101368809Y-118367857D01*
X101559285Y-118415476D01*
X101654523Y-118463095D01*
X101749761Y-118558333D01*
X101797380Y-118701190D01*
X101797380Y-118939285D01*
X101797380Y-117415476D02*
X101797380Y-117986904D01*
X101797380Y-117701190D02*
X100797380Y-117701190D01*
X100940238Y-117796428D01*
X101035476Y-117891666D01*
X101083095Y-117986904D01*
X100797380Y-116510714D02*
X100797380Y-116986904D01*
X101273571Y-117034523D01*
X101225952Y-116986904D01*
X101178333Y-116891666D01*
X101178333Y-116653571D01*
X101225952Y-116558333D01*
X101273571Y-116510714D01*
X101368809Y-116463095D01*
X101606904Y-116463095D01*
X101702142Y-116510714D01*
X101749761Y-116558333D01*
X101797380Y-116653571D01*
X101797380Y-116891666D01*
X101749761Y-116986904D01*
X101702142Y-117034523D01*
G04 #@! TO.C,D16*
X117047380Y-118964285D02*
X116047380Y-118964285D01*
X116047380Y-118726190D01*
X116095000Y-118583333D01*
X116190238Y-118488095D01*
X116285476Y-118440476D01*
X116475952Y-118392857D01*
X116618809Y-118392857D01*
X116809285Y-118440476D01*
X116904523Y-118488095D01*
X116999761Y-118583333D01*
X117047380Y-118726190D01*
X117047380Y-118964285D01*
X117047380Y-117440476D02*
X117047380Y-118011904D01*
X117047380Y-117726190D02*
X116047380Y-117726190D01*
X116190238Y-117821428D01*
X116285476Y-117916666D01*
X116333095Y-118011904D01*
X116047380Y-116583333D02*
X116047380Y-116773809D01*
X116095000Y-116869047D01*
X116142619Y-116916666D01*
X116285476Y-117011904D01*
X116475952Y-117059523D01*
X116856904Y-117059523D01*
X116952142Y-117011904D01*
X116999761Y-116964285D01*
X117047380Y-116869047D01*
X117047380Y-116678571D01*
X116999761Y-116583333D01*
X116952142Y-116535714D01*
X116856904Y-116488095D01*
X116618809Y-116488095D01*
X116523571Y-116535714D01*
X116475952Y-116583333D01*
X116428333Y-116678571D01*
X116428333Y-116869047D01*
X116475952Y-116964285D01*
X116523571Y-117011904D01*
X116618809Y-117059523D01*
G04 #@! TO.C,D17*
X132297380Y-118889285D02*
X131297380Y-118889285D01*
X131297380Y-118651190D01*
X131345000Y-118508333D01*
X131440238Y-118413095D01*
X131535476Y-118365476D01*
X131725952Y-118317857D01*
X131868809Y-118317857D01*
X132059285Y-118365476D01*
X132154523Y-118413095D01*
X132249761Y-118508333D01*
X132297380Y-118651190D01*
X132297380Y-118889285D01*
X132297380Y-117365476D02*
X132297380Y-117936904D01*
X132297380Y-117651190D02*
X131297380Y-117651190D01*
X131440238Y-117746428D01*
X131535476Y-117841666D01*
X131583095Y-117936904D01*
X131297380Y-117032142D02*
X131297380Y-116365476D01*
X132297380Y-116794047D01*
G04 #@! TO.C,D18*
X147522380Y-118964285D02*
X146522380Y-118964285D01*
X146522380Y-118726190D01*
X146570000Y-118583333D01*
X146665238Y-118488095D01*
X146760476Y-118440476D01*
X146950952Y-118392857D01*
X147093809Y-118392857D01*
X147284285Y-118440476D01*
X147379523Y-118488095D01*
X147474761Y-118583333D01*
X147522380Y-118726190D01*
X147522380Y-118964285D01*
X147522380Y-117440476D02*
X147522380Y-118011904D01*
X147522380Y-117726190D02*
X146522380Y-117726190D01*
X146665238Y-117821428D01*
X146760476Y-117916666D01*
X146808095Y-118011904D01*
X146950952Y-116869047D02*
X146903333Y-116964285D01*
X146855714Y-117011904D01*
X146760476Y-117059523D01*
X146712857Y-117059523D01*
X146617619Y-117011904D01*
X146570000Y-116964285D01*
X146522380Y-116869047D01*
X146522380Y-116678571D01*
X146570000Y-116583333D01*
X146617619Y-116535714D01*
X146712857Y-116488095D01*
X146760476Y-116488095D01*
X146855714Y-116535714D01*
X146903333Y-116583333D01*
X146950952Y-116678571D01*
X146950952Y-116869047D01*
X146998571Y-116964285D01*
X147046190Y-117011904D01*
X147141428Y-117059523D01*
X147331904Y-117059523D01*
X147427142Y-117011904D01*
X147474761Y-116964285D01*
X147522380Y-116869047D01*
X147522380Y-116678571D01*
X147474761Y-116583333D01*
X147427142Y-116535714D01*
X147331904Y-116488095D01*
X147141428Y-116488095D01*
X147046190Y-116535714D01*
X146998571Y-116583333D01*
X146950952Y-116678571D01*
G04 #@! TO.C,D19*
X142757380Y-134164285D02*
X141757380Y-134164285D01*
X141757380Y-133926190D01*
X141805000Y-133783333D01*
X141900238Y-133688095D01*
X141995476Y-133640476D01*
X142185952Y-133592857D01*
X142328809Y-133592857D01*
X142519285Y-133640476D01*
X142614523Y-133688095D01*
X142709761Y-133783333D01*
X142757380Y-133926190D01*
X142757380Y-134164285D01*
X142757380Y-132640476D02*
X142757380Y-133211904D01*
X142757380Y-132926190D02*
X141757380Y-132926190D01*
X141900238Y-133021428D01*
X141995476Y-133116666D01*
X142043095Y-133211904D01*
X142757380Y-132164285D02*
X142757380Y-131973809D01*
X142709761Y-131878571D01*
X142662142Y-131830952D01*
X142519285Y-131735714D01*
X142328809Y-131688095D01*
X141947857Y-131688095D01*
X141852619Y-131735714D01*
X141805000Y-131783333D01*
X141757380Y-131878571D01*
X141757380Y-132069047D01*
X141805000Y-132164285D01*
X141852619Y-132211904D01*
X141947857Y-132259523D01*
X142185952Y-132259523D01*
X142281190Y-132211904D01*
X142328809Y-132164285D01*
X142376428Y-132069047D01*
X142376428Y-131878571D01*
X142328809Y-131783333D01*
X142281190Y-131735714D01*
X142185952Y-131688095D01*
G04 #@! TO.C,D20*
X127532380Y-134214285D02*
X126532380Y-134214285D01*
X126532380Y-133976190D01*
X126580000Y-133833333D01*
X126675238Y-133738095D01*
X126770476Y-133690476D01*
X126960952Y-133642857D01*
X127103809Y-133642857D01*
X127294285Y-133690476D01*
X127389523Y-133738095D01*
X127484761Y-133833333D01*
X127532380Y-133976190D01*
X127532380Y-134214285D01*
X126627619Y-133261904D02*
X126580000Y-133214285D01*
X126532380Y-133119047D01*
X126532380Y-132880952D01*
X126580000Y-132785714D01*
X126627619Y-132738095D01*
X126722857Y-132690476D01*
X126818095Y-132690476D01*
X126960952Y-132738095D01*
X127532380Y-133309523D01*
X127532380Y-132690476D01*
X126532380Y-132071428D02*
X126532380Y-131976190D01*
X126580000Y-131880952D01*
X126627619Y-131833333D01*
X126722857Y-131785714D01*
X126913333Y-131738095D01*
X127151428Y-131738095D01*
X127341904Y-131785714D01*
X127437142Y-131833333D01*
X127484761Y-131880952D01*
X127532380Y-131976190D01*
X127532380Y-132071428D01*
X127484761Y-132166666D01*
X127437142Y-132214285D01*
X127341904Y-132261904D01*
X127151428Y-132309523D01*
X126913333Y-132309523D01*
X126722857Y-132261904D01*
X126627619Y-132214285D01*
X126580000Y-132166666D01*
X126532380Y-132071428D01*
G04 #@! TO.C,D21*
X112282380Y-134189285D02*
X111282380Y-134189285D01*
X111282380Y-133951190D01*
X111330000Y-133808333D01*
X111425238Y-133713095D01*
X111520476Y-133665476D01*
X111710952Y-133617857D01*
X111853809Y-133617857D01*
X112044285Y-133665476D01*
X112139523Y-133713095D01*
X112234761Y-133808333D01*
X112282380Y-133951190D01*
X112282380Y-134189285D01*
X111377619Y-133236904D02*
X111330000Y-133189285D01*
X111282380Y-133094047D01*
X111282380Y-132855952D01*
X111330000Y-132760714D01*
X111377619Y-132713095D01*
X111472857Y-132665476D01*
X111568095Y-132665476D01*
X111710952Y-132713095D01*
X112282380Y-133284523D01*
X112282380Y-132665476D01*
X112282380Y-131713095D02*
X112282380Y-132284523D01*
X112282380Y-131998809D02*
X111282380Y-131998809D01*
X111425238Y-132094047D01*
X111520476Y-132189285D01*
X111568095Y-132284523D01*
G04 #@! TO.C,D22*
X97057380Y-134214285D02*
X96057380Y-134214285D01*
X96057380Y-133976190D01*
X96105000Y-133833333D01*
X96200238Y-133738095D01*
X96295476Y-133690476D01*
X96485952Y-133642857D01*
X96628809Y-133642857D01*
X96819285Y-133690476D01*
X96914523Y-133738095D01*
X97009761Y-133833333D01*
X97057380Y-133976190D01*
X97057380Y-134214285D01*
X96152619Y-133261904D02*
X96105000Y-133214285D01*
X96057380Y-133119047D01*
X96057380Y-132880952D01*
X96105000Y-132785714D01*
X96152619Y-132738095D01*
X96247857Y-132690476D01*
X96343095Y-132690476D01*
X96485952Y-132738095D01*
X97057380Y-133309523D01*
X97057380Y-132690476D01*
X96152619Y-132309523D02*
X96105000Y-132261904D01*
X96057380Y-132166666D01*
X96057380Y-131928571D01*
X96105000Y-131833333D01*
X96152619Y-131785714D01*
X96247857Y-131738095D01*
X96343095Y-131738095D01*
X96485952Y-131785714D01*
X97057380Y-132357142D01*
X97057380Y-131738095D01*
G04 #@! TO.C,J4*
X125921666Y-69877380D02*
X125921666Y-70591666D01*
X125874047Y-70734523D01*
X125778809Y-70829761D01*
X125635952Y-70877380D01*
X125540714Y-70877380D01*
X126826428Y-70210714D02*
X126826428Y-70877380D01*
X126588333Y-69829761D02*
X126350238Y-70544047D01*
X126969285Y-70544047D01*
G04 #@! TO.C,MK15*
X104714285Y-125202380D02*
X104714285Y-124202380D01*
X105047619Y-124916666D01*
X105380952Y-124202380D01*
X105380952Y-125202380D01*
X105857142Y-125202380D02*
X105857142Y-124202380D01*
X106428571Y-125202380D02*
X106000000Y-124630952D01*
X106428571Y-124202380D02*
X105857142Y-124773809D01*
X107380952Y-125202380D02*
X106809523Y-125202380D01*
X107095238Y-125202380D02*
X107095238Y-124202380D01*
X107000000Y-124345238D01*
X106904761Y-124440476D01*
X106809523Y-124488095D01*
X108285714Y-124202380D02*
X107809523Y-124202380D01*
X107761904Y-124678571D01*
X107809523Y-124630952D01*
X107904761Y-124583333D01*
X108142857Y-124583333D01*
X108238095Y-124630952D01*
X108285714Y-124678571D01*
X108333333Y-124773809D01*
X108333333Y-125011904D01*
X108285714Y-125107142D01*
X108238095Y-125154761D01*
X108142857Y-125202380D01*
X107904761Y-125202380D01*
X107809523Y-125154761D01*
X107761904Y-125107142D01*
G04 #@! TO.C,MK16*
X150214285Y-125202380D02*
X150214285Y-124202380D01*
X150547619Y-124916666D01*
X150880952Y-124202380D01*
X150880952Y-125202380D01*
X151357142Y-125202380D02*
X151357142Y-124202380D01*
X151928571Y-125202380D02*
X151500000Y-124630952D01*
X151928571Y-124202380D02*
X151357142Y-124773809D01*
X152880952Y-125202380D02*
X152309523Y-125202380D01*
X152595238Y-125202380D02*
X152595238Y-124202380D01*
X152500000Y-124345238D01*
X152404761Y-124440476D01*
X152309523Y-124488095D01*
X153738095Y-124202380D02*
X153547619Y-124202380D01*
X153452380Y-124250000D01*
X153404761Y-124297619D01*
X153309523Y-124440476D01*
X153261904Y-124630952D01*
X153261904Y-125011904D01*
X153309523Y-125107142D01*
X153357142Y-125154761D01*
X153452380Y-125202380D01*
X153642857Y-125202380D01*
X153738095Y-125154761D01*
X153785714Y-125107142D01*
X153833333Y-125011904D01*
X153833333Y-124773809D01*
X153785714Y-124678571D01*
X153738095Y-124630952D01*
X153642857Y-124583333D01*
X153452380Y-124583333D01*
X153357142Y-124630952D01*
X153309523Y-124678571D01*
X153261904Y-124773809D01*
G04 #@! TO.C,MK17*
X196214285Y-125952380D02*
X196214285Y-124952380D01*
X196547619Y-125666666D01*
X196880952Y-124952380D01*
X196880952Y-125952380D01*
X197357142Y-125952380D02*
X197357142Y-124952380D01*
X197928571Y-125952380D02*
X197500000Y-125380952D01*
X197928571Y-124952380D02*
X197357142Y-125523809D01*
X198880952Y-125952380D02*
X198309523Y-125952380D01*
X198595238Y-125952380D02*
X198595238Y-124952380D01*
X198500000Y-125095238D01*
X198404761Y-125190476D01*
X198309523Y-125238095D01*
X199214285Y-124952380D02*
X199880952Y-124952380D01*
X199452380Y-125952380D01*
G04 #@! TO.C,MK18*
X187714285Y-93952380D02*
X187714285Y-92952380D01*
X188047619Y-93666666D01*
X188380952Y-92952380D01*
X188380952Y-93952380D01*
X188857142Y-93952380D02*
X188857142Y-92952380D01*
X189428571Y-93952380D02*
X189000000Y-93380952D01*
X189428571Y-92952380D02*
X188857142Y-93523809D01*
X190380952Y-93952380D02*
X189809523Y-93952380D01*
X190095238Y-93952380D02*
X190095238Y-92952380D01*
X190000000Y-93095238D01*
X189904761Y-93190476D01*
X189809523Y-93238095D01*
X190952380Y-93380952D02*
X190857142Y-93333333D01*
X190809523Y-93285714D01*
X190761904Y-93190476D01*
X190761904Y-93142857D01*
X190809523Y-93047619D01*
X190857142Y-93000000D01*
X190952380Y-92952380D01*
X191142857Y-92952380D01*
X191238095Y-93000000D01*
X191285714Y-93047619D01*
X191333333Y-93142857D01*
X191333333Y-93190476D01*
X191285714Y-93285714D01*
X191238095Y-93333333D01*
X191142857Y-93380952D01*
X190952380Y-93380952D01*
X190857142Y-93428571D01*
X190809523Y-93476190D01*
X190761904Y-93571428D01*
X190761904Y-93761904D01*
X190809523Y-93857142D01*
X190857142Y-93904761D01*
X190952380Y-93952380D01*
X191142857Y-93952380D01*
X191238095Y-93904761D01*
X191285714Y-93857142D01*
X191333333Y-93761904D01*
X191333333Y-93571428D01*
X191285714Y-93476190D01*
X191238095Y-93428571D01*
X191142857Y-93380952D01*
G04 #@! TO.C,MK19*
X199714285Y-81452380D02*
X199714285Y-80452380D01*
X200047619Y-81166666D01*
X200380952Y-80452380D01*
X200380952Y-81452380D01*
X200857142Y-81452380D02*
X200857142Y-80452380D01*
X201428571Y-81452380D02*
X201000000Y-80880952D01*
X201428571Y-80452380D02*
X200857142Y-81023809D01*
X202380952Y-81452380D02*
X201809523Y-81452380D01*
X202095238Y-81452380D02*
X202095238Y-80452380D01*
X202000000Y-80595238D01*
X201904761Y-80690476D01*
X201809523Y-80738095D01*
X202857142Y-81452380D02*
X203047619Y-81452380D01*
X203142857Y-81404761D01*
X203190476Y-81357142D01*
X203285714Y-81214285D01*
X203333333Y-81023809D01*
X203333333Y-80642857D01*
X203285714Y-80547619D01*
X203238095Y-80500000D01*
X203142857Y-80452380D01*
X202952380Y-80452380D01*
X202857142Y-80500000D01*
X202809523Y-80547619D01*
X202761904Y-80642857D01*
X202761904Y-80880952D01*
X202809523Y-80976190D01*
X202857142Y-81023809D01*
X202952380Y-81071428D01*
X203142857Y-81071428D01*
X203238095Y-81023809D01*
X203285714Y-80976190D01*
X203333333Y-80880952D01*
G04 #@! TO.C,SW1*
X178916666Y-83654761D02*
X179059523Y-83702380D01*
X179297619Y-83702380D01*
X179392857Y-83654761D01*
X179440476Y-83607142D01*
X179488095Y-83511904D01*
X179488095Y-83416666D01*
X179440476Y-83321428D01*
X179392857Y-83273809D01*
X179297619Y-83226190D01*
X179107142Y-83178571D01*
X179011904Y-83130952D01*
X178964285Y-83083333D01*
X178916666Y-82988095D01*
X178916666Y-82892857D01*
X178964285Y-82797619D01*
X179011904Y-82750000D01*
X179107142Y-82702380D01*
X179345238Y-82702380D01*
X179488095Y-82750000D01*
X179821428Y-82702380D02*
X180059523Y-83702380D01*
X180250000Y-82988095D01*
X180440476Y-83702380D01*
X180678571Y-82702380D01*
X181583333Y-83702380D02*
X181011904Y-83702380D01*
X181297619Y-83702380D02*
X181297619Y-82702380D01*
X181202380Y-82845238D01*
X181107142Y-82940476D01*
X181011904Y-82988095D01*
G04 #@! TO.C,SW2*
X192916666Y-95904761D02*
X193059523Y-95952380D01*
X193297619Y-95952380D01*
X193392857Y-95904761D01*
X193440476Y-95857142D01*
X193488095Y-95761904D01*
X193488095Y-95666666D01*
X193440476Y-95571428D01*
X193392857Y-95523809D01*
X193297619Y-95476190D01*
X193107142Y-95428571D01*
X193011904Y-95380952D01*
X192964285Y-95333333D01*
X192916666Y-95238095D01*
X192916666Y-95142857D01*
X192964285Y-95047619D01*
X193011904Y-95000000D01*
X193107142Y-94952380D01*
X193345238Y-94952380D01*
X193488095Y-95000000D01*
X193821428Y-94952380D02*
X194059523Y-95952380D01*
X194250000Y-95238095D01*
X194440476Y-95952380D01*
X194678571Y-94952380D01*
X195011904Y-95047619D02*
X195059523Y-95000000D01*
X195154761Y-94952380D01*
X195392857Y-94952380D01*
X195488095Y-95000000D01*
X195535714Y-95047619D01*
X195583333Y-95142857D01*
X195583333Y-95238095D01*
X195535714Y-95380952D01*
X194964285Y-95952380D01*
X195583333Y-95952380D01*
G04 #@! TO.C,SW3*
X193166666Y-71154761D02*
X193309523Y-71202380D01*
X193547619Y-71202380D01*
X193642857Y-71154761D01*
X193690476Y-71107142D01*
X193738095Y-71011904D01*
X193738095Y-70916666D01*
X193690476Y-70821428D01*
X193642857Y-70773809D01*
X193547619Y-70726190D01*
X193357142Y-70678571D01*
X193261904Y-70630952D01*
X193214285Y-70583333D01*
X193166666Y-70488095D01*
X193166666Y-70392857D01*
X193214285Y-70297619D01*
X193261904Y-70250000D01*
X193357142Y-70202380D01*
X193595238Y-70202380D01*
X193738095Y-70250000D01*
X194071428Y-70202380D02*
X194309523Y-71202380D01*
X194500000Y-70488095D01*
X194690476Y-71202380D01*
X194928571Y-70202380D01*
X195214285Y-70202380D02*
X195833333Y-70202380D01*
X195500000Y-70583333D01*
X195642857Y-70583333D01*
X195738095Y-70630952D01*
X195785714Y-70678571D01*
X195833333Y-70773809D01*
X195833333Y-71011904D01*
X195785714Y-71107142D01*
X195738095Y-71154761D01*
X195642857Y-71202380D01*
X195357142Y-71202380D01*
X195261904Y-71154761D01*
X195214285Y-71107142D01*
G04 #@! TO.C,SW4*
X205166666Y-83654761D02*
X205309523Y-83702380D01*
X205547619Y-83702380D01*
X205642857Y-83654761D01*
X205690476Y-83607142D01*
X205738095Y-83511904D01*
X205738095Y-83416666D01*
X205690476Y-83321428D01*
X205642857Y-83273809D01*
X205547619Y-83226190D01*
X205357142Y-83178571D01*
X205261904Y-83130952D01*
X205214285Y-83083333D01*
X205166666Y-82988095D01*
X205166666Y-82892857D01*
X205214285Y-82797619D01*
X205261904Y-82750000D01*
X205357142Y-82702380D01*
X205595238Y-82702380D01*
X205738095Y-82750000D01*
X206071428Y-82702380D02*
X206309523Y-83702380D01*
X206500000Y-82988095D01*
X206690476Y-83702380D01*
X206928571Y-82702380D01*
X207738095Y-83035714D02*
X207738095Y-83702380D01*
X207500000Y-82654761D02*
X207261904Y-83369047D01*
X207880952Y-83369047D01*
G04 #@! TO.C,SW5*
X169666666Y-126654761D02*
X169809523Y-126702380D01*
X170047619Y-126702380D01*
X170142857Y-126654761D01*
X170190476Y-126607142D01*
X170238095Y-126511904D01*
X170238095Y-126416666D01*
X170190476Y-126321428D01*
X170142857Y-126273809D01*
X170047619Y-126226190D01*
X169857142Y-126178571D01*
X169761904Y-126130952D01*
X169714285Y-126083333D01*
X169666666Y-125988095D01*
X169666666Y-125892857D01*
X169714285Y-125797619D01*
X169761904Y-125750000D01*
X169857142Y-125702380D01*
X170095238Y-125702380D01*
X170238095Y-125750000D01*
X170571428Y-125702380D02*
X170809523Y-126702380D01*
X171000000Y-125988095D01*
X171190476Y-126702380D01*
X171428571Y-125702380D01*
X172285714Y-125702380D02*
X171809523Y-125702380D01*
X171761904Y-126178571D01*
X171809523Y-126130952D01*
X171904761Y-126083333D01*
X172142857Y-126083333D01*
X172238095Y-126130952D01*
X172285714Y-126178571D01*
X172333333Y-126273809D01*
X172333333Y-126511904D01*
X172285714Y-126607142D01*
X172238095Y-126654761D01*
X172142857Y-126702380D01*
X171904761Y-126702380D01*
X171809523Y-126654761D01*
X171761904Y-126607142D01*
G04 #@! TO.C,SW6*
X154416666Y-126904761D02*
X154559523Y-126952380D01*
X154797619Y-126952380D01*
X154892857Y-126904761D01*
X154940476Y-126857142D01*
X154988095Y-126761904D01*
X154988095Y-126666666D01*
X154940476Y-126571428D01*
X154892857Y-126523809D01*
X154797619Y-126476190D01*
X154607142Y-126428571D01*
X154511904Y-126380952D01*
X154464285Y-126333333D01*
X154416666Y-126238095D01*
X154416666Y-126142857D01*
X154464285Y-126047619D01*
X154511904Y-126000000D01*
X154607142Y-125952380D01*
X154845238Y-125952380D01*
X154988095Y-126000000D01*
X155321428Y-125952380D02*
X155559523Y-126952380D01*
X155750000Y-126238095D01*
X155940476Y-126952380D01*
X156178571Y-125952380D01*
X156988095Y-125952380D02*
X156797619Y-125952380D01*
X156702380Y-126000000D01*
X156654761Y-126047619D01*
X156559523Y-126190476D01*
X156511904Y-126380952D01*
X156511904Y-126761904D01*
X156559523Y-126857142D01*
X156607142Y-126904761D01*
X156702380Y-126952380D01*
X156892857Y-126952380D01*
X156988095Y-126904761D01*
X157035714Y-126857142D01*
X157083333Y-126761904D01*
X157083333Y-126523809D01*
X157035714Y-126428571D01*
X156988095Y-126380952D01*
X156892857Y-126333333D01*
X156702380Y-126333333D01*
X156607142Y-126380952D01*
X156559523Y-126428571D01*
X156511904Y-126523809D01*
G04 #@! TO.C,SW7*
X160416666Y-111904761D02*
X160559523Y-111952380D01*
X160797619Y-111952380D01*
X160892857Y-111904761D01*
X160940476Y-111857142D01*
X160988095Y-111761904D01*
X160988095Y-111666666D01*
X160940476Y-111571428D01*
X160892857Y-111523809D01*
X160797619Y-111476190D01*
X160607142Y-111428571D01*
X160511904Y-111380952D01*
X160464285Y-111333333D01*
X160416666Y-111238095D01*
X160416666Y-111142857D01*
X160464285Y-111047619D01*
X160511904Y-111000000D01*
X160607142Y-110952380D01*
X160845238Y-110952380D01*
X160988095Y-111000000D01*
X161321428Y-110952380D02*
X161559523Y-111952380D01*
X161750000Y-111238095D01*
X161940476Y-111952380D01*
X162178571Y-110952380D01*
X162464285Y-110952380D02*
X163130952Y-110952380D01*
X162702380Y-111952380D01*
G04 #@! TO.C,SW8*
X175666666Y-111904761D02*
X175809523Y-111952380D01*
X176047619Y-111952380D01*
X176142857Y-111904761D01*
X176190476Y-111857142D01*
X176238095Y-111761904D01*
X176238095Y-111666666D01*
X176190476Y-111571428D01*
X176142857Y-111523809D01*
X176047619Y-111476190D01*
X175857142Y-111428571D01*
X175761904Y-111380952D01*
X175714285Y-111333333D01*
X175666666Y-111238095D01*
X175666666Y-111142857D01*
X175714285Y-111047619D01*
X175761904Y-111000000D01*
X175857142Y-110952380D01*
X176095238Y-110952380D01*
X176238095Y-111000000D01*
X176571428Y-110952380D02*
X176809523Y-111952380D01*
X177000000Y-111238095D01*
X177190476Y-111952380D01*
X177428571Y-110952380D01*
X177952380Y-111380952D02*
X177857142Y-111333333D01*
X177809523Y-111285714D01*
X177761904Y-111190476D01*
X177761904Y-111142857D01*
X177809523Y-111047619D01*
X177857142Y-111000000D01*
X177952380Y-110952380D01*
X178142857Y-110952380D01*
X178238095Y-111000000D01*
X178285714Y-111047619D01*
X178333333Y-111142857D01*
X178333333Y-111190476D01*
X178285714Y-111285714D01*
X178238095Y-111333333D01*
X178142857Y-111380952D01*
X177952380Y-111380952D01*
X177857142Y-111428571D01*
X177809523Y-111476190D01*
X177761904Y-111571428D01*
X177761904Y-111761904D01*
X177809523Y-111857142D01*
X177857142Y-111904761D01*
X177952380Y-111952380D01*
X178142857Y-111952380D01*
X178238095Y-111904761D01*
X178285714Y-111857142D01*
X178333333Y-111761904D01*
X178333333Y-111571428D01*
X178285714Y-111476190D01*
X178238095Y-111428571D01*
X178142857Y-111380952D01*
G04 #@! TO.C,SW9*
X190916666Y-111904761D02*
X191059523Y-111952380D01*
X191297619Y-111952380D01*
X191392857Y-111904761D01*
X191440476Y-111857142D01*
X191488095Y-111761904D01*
X191488095Y-111666666D01*
X191440476Y-111571428D01*
X191392857Y-111523809D01*
X191297619Y-111476190D01*
X191107142Y-111428571D01*
X191011904Y-111380952D01*
X190964285Y-111333333D01*
X190916666Y-111238095D01*
X190916666Y-111142857D01*
X190964285Y-111047619D01*
X191011904Y-111000000D01*
X191107142Y-110952380D01*
X191345238Y-110952380D01*
X191488095Y-111000000D01*
X191821428Y-110952380D02*
X192059523Y-111952380D01*
X192250000Y-111238095D01*
X192440476Y-111952380D01*
X192678571Y-110952380D01*
X193107142Y-111952380D02*
X193297619Y-111952380D01*
X193392857Y-111904761D01*
X193440476Y-111857142D01*
X193535714Y-111714285D01*
X193583333Y-111523809D01*
X193583333Y-111142857D01*
X193535714Y-111047619D01*
X193488095Y-111000000D01*
X193392857Y-110952380D01*
X193202380Y-110952380D01*
X193107142Y-111000000D01*
X193059523Y-111047619D01*
X193011904Y-111142857D01*
X193011904Y-111380952D01*
X193059523Y-111476190D01*
X193107142Y-111523809D01*
X193202380Y-111571428D01*
X193392857Y-111571428D01*
X193488095Y-111523809D01*
X193535714Y-111476190D01*
X193583333Y-111380952D01*
G04 #@! TO.C,SW10*
X205190476Y-111904761D02*
X205333333Y-111952380D01*
X205571428Y-111952380D01*
X205666666Y-111904761D01*
X205714285Y-111857142D01*
X205761904Y-111761904D01*
X205761904Y-111666666D01*
X205714285Y-111571428D01*
X205666666Y-111523809D01*
X205571428Y-111476190D01*
X205380952Y-111428571D01*
X205285714Y-111380952D01*
X205238095Y-111333333D01*
X205190476Y-111238095D01*
X205190476Y-111142857D01*
X205238095Y-111047619D01*
X205285714Y-111000000D01*
X205380952Y-110952380D01*
X205619047Y-110952380D01*
X205761904Y-111000000D01*
X206095238Y-110952380D02*
X206333333Y-111952380D01*
X206523809Y-111238095D01*
X206714285Y-111952380D01*
X206952380Y-110952380D01*
X207857142Y-111952380D02*
X207285714Y-111952380D01*
X207571428Y-111952380D02*
X207571428Y-110952380D01*
X207476190Y-111095238D01*
X207380952Y-111190476D01*
X207285714Y-111238095D01*
X208476190Y-110952380D02*
X208571428Y-110952380D01*
X208666666Y-111000000D01*
X208714285Y-111047619D01*
X208761904Y-111142857D01*
X208809523Y-111333333D01*
X208809523Y-111571428D01*
X208761904Y-111761904D01*
X208714285Y-111857142D01*
X208666666Y-111904761D01*
X208571428Y-111952380D01*
X208476190Y-111952380D01*
X208380952Y-111904761D01*
X208333333Y-111857142D01*
X208285714Y-111761904D01*
X208238095Y-111571428D01*
X208238095Y-111333333D01*
X208285714Y-111142857D01*
X208333333Y-111047619D01*
X208380952Y-111000000D01*
X208476190Y-110952380D01*
G04 #@! TO.C,SW11*
X200690476Y-126904761D02*
X200833333Y-126952380D01*
X201071428Y-126952380D01*
X201166666Y-126904761D01*
X201214285Y-126857142D01*
X201261904Y-126761904D01*
X201261904Y-126666666D01*
X201214285Y-126571428D01*
X201166666Y-126523809D01*
X201071428Y-126476190D01*
X200880952Y-126428571D01*
X200785714Y-126380952D01*
X200738095Y-126333333D01*
X200690476Y-126238095D01*
X200690476Y-126142857D01*
X200738095Y-126047619D01*
X200785714Y-126000000D01*
X200880952Y-125952380D01*
X201119047Y-125952380D01*
X201261904Y-126000000D01*
X201595238Y-125952380D02*
X201833333Y-126952380D01*
X202023809Y-126238095D01*
X202214285Y-126952380D01*
X202452380Y-125952380D01*
X203357142Y-126952380D02*
X202785714Y-126952380D01*
X203071428Y-126952380D02*
X203071428Y-125952380D01*
X202976190Y-126095238D01*
X202880952Y-126190476D01*
X202785714Y-126238095D01*
X204309523Y-126952380D02*
X203738095Y-126952380D01*
X204023809Y-126952380D02*
X204023809Y-125952380D01*
X203928571Y-126095238D01*
X203833333Y-126190476D01*
X203738095Y-126238095D01*
G04 #@! TO.C,SW12*
X184690476Y-126904761D02*
X184833333Y-126952380D01*
X185071428Y-126952380D01*
X185166666Y-126904761D01*
X185214285Y-126857142D01*
X185261904Y-126761904D01*
X185261904Y-126666666D01*
X185214285Y-126571428D01*
X185166666Y-126523809D01*
X185071428Y-126476190D01*
X184880952Y-126428571D01*
X184785714Y-126380952D01*
X184738095Y-126333333D01*
X184690476Y-126238095D01*
X184690476Y-126142857D01*
X184738095Y-126047619D01*
X184785714Y-126000000D01*
X184880952Y-125952380D01*
X185119047Y-125952380D01*
X185261904Y-126000000D01*
X185595238Y-125952380D02*
X185833333Y-126952380D01*
X186023809Y-126238095D01*
X186214285Y-126952380D01*
X186452380Y-125952380D01*
X187357142Y-126952380D02*
X186785714Y-126952380D01*
X187071428Y-126952380D02*
X187071428Y-125952380D01*
X186976190Y-126095238D01*
X186880952Y-126190476D01*
X186785714Y-126238095D01*
X187738095Y-126047619D02*
X187785714Y-126000000D01*
X187880952Y-125952380D01*
X188119047Y-125952380D01*
X188214285Y-126000000D01*
X188261904Y-126047619D01*
X188309523Y-126142857D01*
X188309523Y-126238095D01*
X188261904Y-126380952D01*
X187690476Y-126952380D01*
X188309523Y-126952380D01*
G04 #@! TO.C,SW13*
X108440476Y-126904761D02*
X108583333Y-126952380D01*
X108821428Y-126952380D01*
X108916666Y-126904761D01*
X108964285Y-126857142D01*
X109011904Y-126761904D01*
X109011904Y-126666666D01*
X108964285Y-126571428D01*
X108916666Y-126523809D01*
X108821428Y-126476190D01*
X108630952Y-126428571D01*
X108535714Y-126380952D01*
X108488095Y-126333333D01*
X108440476Y-126238095D01*
X108440476Y-126142857D01*
X108488095Y-126047619D01*
X108535714Y-126000000D01*
X108630952Y-125952380D01*
X108869047Y-125952380D01*
X109011904Y-126000000D01*
X109345238Y-125952380D02*
X109583333Y-126952380D01*
X109773809Y-126238095D01*
X109964285Y-126952380D01*
X110202380Y-125952380D01*
X111107142Y-126952380D02*
X110535714Y-126952380D01*
X110821428Y-126952380D02*
X110821428Y-125952380D01*
X110726190Y-126095238D01*
X110630952Y-126190476D01*
X110535714Y-126238095D01*
X111440476Y-125952380D02*
X112059523Y-125952380D01*
X111726190Y-126333333D01*
X111869047Y-126333333D01*
X111964285Y-126380952D01*
X112011904Y-126428571D01*
X112059523Y-126523809D01*
X112059523Y-126761904D01*
X112011904Y-126857142D01*
X111964285Y-126904761D01*
X111869047Y-126952380D01*
X111583333Y-126952380D01*
X111488095Y-126904761D01*
X111440476Y-126857142D01*
G04 #@! TO.C,SW15*
X98690476Y-111904761D02*
X98833333Y-111952380D01*
X99071428Y-111952380D01*
X99166666Y-111904761D01*
X99214285Y-111857142D01*
X99261904Y-111761904D01*
X99261904Y-111666666D01*
X99214285Y-111571428D01*
X99166666Y-111523809D01*
X99071428Y-111476190D01*
X98880952Y-111428571D01*
X98785714Y-111380952D01*
X98738095Y-111333333D01*
X98690476Y-111238095D01*
X98690476Y-111142857D01*
X98738095Y-111047619D01*
X98785714Y-111000000D01*
X98880952Y-110952380D01*
X99119047Y-110952380D01*
X99261904Y-111000000D01*
X99595238Y-110952380D02*
X99833333Y-111952380D01*
X100023809Y-111238095D01*
X100214285Y-111952380D01*
X100452380Y-110952380D01*
X101357142Y-111952380D02*
X100785714Y-111952380D01*
X101071428Y-111952380D02*
X101071428Y-110952380D01*
X100976190Y-111095238D01*
X100880952Y-111190476D01*
X100785714Y-111238095D01*
X102261904Y-110952380D02*
X101785714Y-110952380D01*
X101738095Y-111428571D01*
X101785714Y-111380952D01*
X101880952Y-111333333D01*
X102119047Y-111333333D01*
X102214285Y-111380952D01*
X102261904Y-111428571D01*
X102309523Y-111523809D01*
X102309523Y-111761904D01*
X102261904Y-111857142D01*
X102214285Y-111904761D01*
X102119047Y-111952380D01*
X101880952Y-111952380D01*
X101785714Y-111904761D01*
X101738095Y-111857142D01*
G04 #@! TO.C,SW16*
X113690476Y-111904761D02*
X113833333Y-111952380D01*
X114071428Y-111952380D01*
X114166666Y-111904761D01*
X114214285Y-111857142D01*
X114261904Y-111761904D01*
X114261904Y-111666666D01*
X114214285Y-111571428D01*
X114166666Y-111523809D01*
X114071428Y-111476190D01*
X113880952Y-111428571D01*
X113785714Y-111380952D01*
X113738095Y-111333333D01*
X113690476Y-111238095D01*
X113690476Y-111142857D01*
X113738095Y-111047619D01*
X113785714Y-111000000D01*
X113880952Y-110952380D01*
X114119047Y-110952380D01*
X114261904Y-111000000D01*
X114595238Y-110952380D02*
X114833333Y-111952380D01*
X115023809Y-111238095D01*
X115214285Y-111952380D01*
X115452380Y-110952380D01*
X116357142Y-111952380D02*
X115785714Y-111952380D01*
X116071428Y-111952380D02*
X116071428Y-110952380D01*
X115976190Y-111095238D01*
X115880952Y-111190476D01*
X115785714Y-111238095D01*
X117214285Y-110952380D02*
X117023809Y-110952380D01*
X116928571Y-111000000D01*
X116880952Y-111047619D01*
X116785714Y-111190476D01*
X116738095Y-111380952D01*
X116738095Y-111761904D01*
X116785714Y-111857142D01*
X116833333Y-111904761D01*
X116928571Y-111952380D01*
X117119047Y-111952380D01*
X117214285Y-111904761D01*
X117261904Y-111857142D01*
X117309523Y-111761904D01*
X117309523Y-111523809D01*
X117261904Y-111428571D01*
X117214285Y-111380952D01*
X117119047Y-111333333D01*
X116928571Y-111333333D01*
X116833333Y-111380952D01*
X116785714Y-111428571D01*
X116738095Y-111523809D01*
G04 #@! TO.C,SW17*
X128940476Y-111904761D02*
X129083333Y-111952380D01*
X129321428Y-111952380D01*
X129416666Y-111904761D01*
X129464285Y-111857142D01*
X129511904Y-111761904D01*
X129511904Y-111666666D01*
X129464285Y-111571428D01*
X129416666Y-111523809D01*
X129321428Y-111476190D01*
X129130952Y-111428571D01*
X129035714Y-111380952D01*
X128988095Y-111333333D01*
X128940476Y-111238095D01*
X128940476Y-111142857D01*
X128988095Y-111047619D01*
X129035714Y-111000000D01*
X129130952Y-110952380D01*
X129369047Y-110952380D01*
X129511904Y-111000000D01*
X129845238Y-110952380D02*
X130083333Y-111952380D01*
X130273809Y-111238095D01*
X130464285Y-111952380D01*
X130702380Y-110952380D01*
X131607142Y-111952380D02*
X131035714Y-111952380D01*
X131321428Y-111952380D02*
X131321428Y-110952380D01*
X131226190Y-111095238D01*
X131130952Y-111190476D01*
X131035714Y-111238095D01*
X131940476Y-110952380D02*
X132607142Y-110952380D01*
X132178571Y-111952380D01*
G04 #@! TO.C,SW18*
X144190476Y-111904761D02*
X144333333Y-111952380D01*
X144571428Y-111952380D01*
X144666666Y-111904761D01*
X144714285Y-111857142D01*
X144761904Y-111761904D01*
X144761904Y-111666666D01*
X144714285Y-111571428D01*
X144666666Y-111523809D01*
X144571428Y-111476190D01*
X144380952Y-111428571D01*
X144285714Y-111380952D01*
X144238095Y-111333333D01*
X144190476Y-111238095D01*
X144190476Y-111142857D01*
X144238095Y-111047619D01*
X144285714Y-111000000D01*
X144380952Y-110952380D01*
X144619047Y-110952380D01*
X144761904Y-111000000D01*
X145095238Y-110952380D02*
X145333333Y-111952380D01*
X145523809Y-111238095D01*
X145714285Y-111952380D01*
X145952380Y-110952380D01*
X146857142Y-111952380D02*
X146285714Y-111952380D01*
X146571428Y-111952380D02*
X146571428Y-110952380D01*
X146476190Y-111095238D01*
X146380952Y-111190476D01*
X146285714Y-111238095D01*
X147428571Y-111380952D02*
X147333333Y-111333333D01*
X147285714Y-111285714D01*
X147238095Y-111190476D01*
X147238095Y-111142857D01*
X147285714Y-111047619D01*
X147333333Y-111000000D01*
X147428571Y-110952380D01*
X147619047Y-110952380D01*
X147714285Y-111000000D01*
X147761904Y-111047619D01*
X147809523Y-111142857D01*
X147809523Y-111190476D01*
X147761904Y-111285714D01*
X147714285Y-111333333D01*
X147619047Y-111380952D01*
X147428571Y-111380952D01*
X147333333Y-111428571D01*
X147285714Y-111476190D01*
X147238095Y-111571428D01*
X147238095Y-111761904D01*
X147285714Y-111857142D01*
X147333333Y-111904761D01*
X147428571Y-111952380D01*
X147619047Y-111952380D01*
X147714285Y-111904761D01*
X147761904Y-111857142D01*
X147809523Y-111761904D01*
X147809523Y-111571428D01*
X147761904Y-111476190D01*
X147714285Y-111428571D01*
X147619047Y-111380952D01*
G04 #@! TO.C,SW19*
X138940476Y-126654761D02*
X139083333Y-126702380D01*
X139321428Y-126702380D01*
X139416666Y-126654761D01*
X139464285Y-126607142D01*
X139511904Y-126511904D01*
X139511904Y-126416666D01*
X139464285Y-126321428D01*
X139416666Y-126273809D01*
X139321428Y-126226190D01*
X139130952Y-126178571D01*
X139035714Y-126130952D01*
X138988095Y-126083333D01*
X138940476Y-125988095D01*
X138940476Y-125892857D01*
X138988095Y-125797619D01*
X139035714Y-125750000D01*
X139130952Y-125702380D01*
X139369047Y-125702380D01*
X139511904Y-125750000D01*
X139845238Y-125702380D02*
X140083333Y-126702380D01*
X140273809Y-125988095D01*
X140464285Y-126702380D01*
X140702380Y-125702380D01*
X141607142Y-126702380D02*
X141035714Y-126702380D01*
X141321428Y-126702380D02*
X141321428Y-125702380D01*
X141226190Y-125845238D01*
X141130952Y-125940476D01*
X141035714Y-125988095D01*
X142083333Y-126702380D02*
X142273809Y-126702380D01*
X142369047Y-126654761D01*
X142416666Y-126607142D01*
X142511904Y-126464285D01*
X142559523Y-126273809D01*
X142559523Y-125892857D01*
X142511904Y-125797619D01*
X142464285Y-125750000D01*
X142369047Y-125702380D01*
X142178571Y-125702380D01*
X142083333Y-125750000D01*
X142035714Y-125797619D01*
X141988095Y-125892857D01*
X141988095Y-126130952D01*
X142035714Y-126226190D01*
X142083333Y-126273809D01*
X142178571Y-126321428D01*
X142369047Y-126321428D01*
X142464285Y-126273809D01*
X142511904Y-126226190D01*
X142559523Y-126130952D01*
G04 #@! TO.C,SW20*
X123940476Y-126654761D02*
X124083333Y-126702380D01*
X124321428Y-126702380D01*
X124416666Y-126654761D01*
X124464285Y-126607142D01*
X124511904Y-126511904D01*
X124511904Y-126416666D01*
X124464285Y-126321428D01*
X124416666Y-126273809D01*
X124321428Y-126226190D01*
X124130952Y-126178571D01*
X124035714Y-126130952D01*
X123988095Y-126083333D01*
X123940476Y-125988095D01*
X123940476Y-125892857D01*
X123988095Y-125797619D01*
X124035714Y-125750000D01*
X124130952Y-125702380D01*
X124369047Y-125702380D01*
X124511904Y-125750000D01*
X124845238Y-125702380D02*
X125083333Y-126702380D01*
X125273809Y-125988095D01*
X125464285Y-126702380D01*
X125702380Y-125702380D01*
X126035714Y-125797619D02*
X126083333Y-125750000D01*
X126178571Y-125702380D01*
X126416666Y-125702380D01*
X126511904Y-125750000D01*
X126559523Y-125797619D01*
X126607142Y-125892857D01*
X126607142Y-125988095D01*
X126559523Y-126130952D01*
X125988095Y-126702380D01*
X126607142Y-126702380D01*
X127226190Y-125702380D02*
X127321428Y-125702380D01*
X127416666Y-125750000D01*
X127464285Y-125797619D01*
X127511904Y-125892857D01*
X127559523Y-126083333D01*
X127559523Y-126321428D01*
X127511904Y-126511904D01*
X127464285Y-126607142D01*
X127416666Y-126654761D01*
X127321428Y-126702380D01*
X127226190Y-126702380D01*
X127130952Y-126654761D01*
X127083333Y-126607142D01*
X127035714Y-126511904D01*
X126988095Y-126321428D01*
X126988095Y-126083333D01*
X127035714Y-125892857D01*
X127083333Y-125797619D01*
X127130952Y-125750000D01*
X127226190Y-125702380D01*
G04 #@! TD*
M02*
