G04 #@! TF.GenerationSoftware,KiCad,Pcbnew,(5.0.0)*
G04 #@! TF.CreationDate,2019-05-28T15:54:33+08:00*
G04 #@! TF.ProjectId,joyMIDI,6A6F794D4944492E6B696361645F7063,rev?*
G04 #@! TF.SameCoordinates,Original*
G04 #@! TF.FileFunction,Profile,NP*
%FSLAX46Y46*%
G04 Gerber Fmt 4.6, Leading zero omitted, Abs format (unit mm)*
G04 Created by KiCad (PCBNEW (5.0.0)) date 05/28/19 15:54:33*
%MOMM*%
%LPD*%
G01*
G04 APERTURE LIST*
%ADD10C,0.100000*%
G04 APERTURE END LIST*
D10*
X122651100Y-105003600D02*
G75*
G03X122651100Y-105003600I-4150000J0D01*
G01*
X182651100Y-105003600D02*
G75*
G03X182651100Y-105003600I-4150000J0D01*
G01*
X111751100Y-141803600D02*
G75*
G02X112251100Y-141303600I500000J0D01*
G01*
X111751100Y-142003600D02*
G75*
G02X111251100Y-142503600I-500000J0D01*
G01*
X81501100Y-142503600D02*
G75*
G02X78501100Y-139503600I0J3000000D01*
G01*
X78501100Y-70503600D02*
G75*
G02X81501100Y-67503600I3000000J0D01*
G01*
X96251100Y-67503600D02*
G75*
G02X96751100Y-68003600I0J-500000D01*
G01*
X97251100Y-68703600D02*
G75*
G02X96751100Y-68203600I0J500000D01*
G01*
X104251100Y-68203600D02*
G75*
G02X103751100Y-68703600I-500000J0D01*
G01*
X104251100Y-68003600D02*
G75*
G02X104751100Y-67503600I500000J0D01*
G01*
X200251100Y-68003600D02*
G75*
G02X200751100Y-67503600I500000J0D01*
G01*
X200251100Y-68003600D02*
X200251100Y-68203600D01*
X218501100Y-139503600D02*
X218501100Y-70503600D01*
X97251100Y-68703600D02*
X103751100Y-68703600D01*
X78501100Y-70503600D02*
X78501100Y-139503600D01*
X158501100Y-66103600D02*
G75*
G02X159001100Y-65603600I500000J0D01*
G01*
X185751100Y-142503600D02*
X215501100Y-142503600D01*
X185251100Y-141803600D02*
X185251100Y-142003600D01*
X192251100Y-67503600D02*
X181901100Y-67503600D01*
X118751100Y-141303600D02*
X112251100Y-141303600D01*
X185751100Y-142503600D02*
G75*
G02X185251100Y-142003600I0J500000D01*
G01*
X96251100Y-67503600D02*
X81501100Y-67503600D01*
X181901100Y-67503600D02*
G75*
G02X181401100Y-67003600I0J500000D01*
G01*
X181401100Y-66103600D02*
X181401100Y-67003600D01*
X118751100Y-141303600D02*
G75*
G02X119251100Y-141803600I0J-500000D01*
G01*
X104251100Y-68203600D02*
X104251100Y-68003600D01*
X218501100Y-139503600D02*
G75*
G02X215501100Y-142503600I-3000000J0D01*
G01*
X180901100Y-65603600D02*
G75*
G02X181401100Y-66103600I0J-500000D01*
G01*
X199751100Y-68703600D02*
X193251100Y-68703600D01*
X200251100Y-68203600D02*
G75*
G02X199751100Y-68703600I-500000J0D01*
G01*
X158501100Y-67003600D02*
X158501100Y-66103600D01*
X119251100Y-142003600D02*
X119251100Y-141803600D01*
X192751100Y-68203600D02*
X192751100Y-68003600D01*
X177751100Y-141803600D02*
G75*
G02X178251100Y-141303600I500000J0D01*
G01*
X184751100Y-141303600D02*
G75*
G02X185251100Y-141803600I0J-500000D01*
G01*
X158001100Y-67503600D02*
X104751100Y-67503600D01*
X158501100Y-67003600D02*
G75*
G02X158001100Y-67503600I-500000J0D01*
G01*
X178251100Y-141303600D02*
X184751100Y-141303600D01*
X111751100Y-141803600D02*
X111751100Y-142003600D01*
X215501100Y-67503600D02*
G75*
G02X218501100Y-70503600I0J-3000000D01*
G01*
X159001100Y-65603600D02*
X180901100Y-65603600D01*
X193251100Y-68703600D02*
G75*
G02X192751100Y-68203600I0J500000D01*
G01*
X177751100Y-142003600D02*
X177751100Y-141803600D01*
X81501100Y-142503600D02*
X111251100Y-142503600D01*
X192251100Y-67503600D02*
G75*
G02X192751100Y-68003600I0J-500000D01*
G01*
X119751100Y-142503600D02*
G75*
G02X119251100Y-142003600I0J500000D01*
G01*
X177751100Y-142003600D02*
G75*
G02X177251100Y-142503600I-500000J0D01*
G01*
X119751100Y-142503600D02*
X177251100Y-142503600D01*
X215501100Y-67503600D02*
X200751100Y-67503600D01*
X96751100Y-68003600D02*
X96751100Y-68203600D01*
M02*
