<?xml version="1.0" encoding="UTF-8" standalone="no"?>
<svg
   xmlns:dc="http://purl.org/dc/elements/1.1/"
   xmlns:cc="http://creativecommons.org/ns#"
   xmlns:rdf="http://www.w3.org/1999/02/22-rdf-syntax-ns#"
   xmlns:svg="http://www.w3.org/2000/svg"
   xmlns="http://www.w3.org/2000/svg"
   xmlns:sodipodi="http://sodipodi.sourceforge.net/DTD/sodipodi-0.dtd"
   xmlns:inkscape="http://www.inkscape.org/namespaces/inkscape"
   width="793.700787402"
   height="1122.51968504"
   version="1.1"
   id="svg155"
   sodipodi:docname="RubberPad.svg"
   inkscape:version="0.92.3 (2405546, 2018-03-11)">
  <metadata
     id="metadata159">
    <rdf:RDF>
      <cc:Work
         rdf:about="">
        <dc:format>image/svg+xml</dc:format>
        <dc:type
           rdf:resource="http://purl.org/dc/dcmitype/StillImage" />
        <dc:title></dc:title>
      </cc:Work>
    </rdf:RDF>
  </metadata>
  <sodipodi:namedview
     pagecolor="#ffffff"
     bordercolor="#666666"
     borderopacity="1"
     objecttolerance="10"
     gridtolerance="10"
     guidetolerance="10"
     inkscape:pageopacity="0"
     inkscape:pageshadow="2"
     inkscape:window-width="1920"
     inkscape:window-height="1001"
     id="namedview157"
     showgrid="false"
     inkscape:zoom="13.455444"
     inkscape:cx="2.6801973"
     inkscape:cy="-2.8364017"
     inkscape:window-x="-9"
     inkscape:window-y="-9"
     inkscape:window-maximized="1"
     inkscape:current-layer="layer1" />
  <desc
     id="desc2">C:\Users\user\Desktop\joyMIDI - HW (180917)\__others\Solidworks-RubberPad\RubberPad.DXF - scale = 1.000000, origin = (0.000000, 0.000000), method = file</desc>
  <defs
     id="defs17">
    <marker
       id="DistanceX"
       orient="auto"
       refX="0.0"
       refY="0.0"
       style="overflow:visible">
      <path
         d="M 3,-3 L -3,3 M 0,-5 L  0,5"
         style="stroke:#000000; stroke-width:0.5"
         id="path4" />
    </marker>
    <pattern
       height="8"
       id="Hatch"
       patternUnits="userSpaceOnUse"
       width="8"
       x="0"
       y="0">
      <path
         d="M8 4 l-4,4"
         linecap="square"
         stroke="#000000"
         stroke-width="0.25"
         id="path7" />
      <path
         d="M6 2 l-4,4"
         linecap="square"
         stroke="#000000"
         stroke-width="0.25"
         id="path9" />
      <path
         d="M4 0 l-4,4"
         linecap="square"
         stroke="#000000"
         stroke-width="0.25"
         id="path11" />
    </pattern>
    <symbol
       id="*Model_Space" />
    <symbol
       id="*Paper_Space" />
    <symbol
       id="*Paper_Space0" />
  </defs>
  <g
     inkscape:groupmode="layer"
     id="layer1"
     inkscape:label="Mask"
     style="display:inline"
     sodipodi:insensitive="true">
    <path
       style="display:inline;opacity:1;fill:#ff0000;fill-opacity:1;stroke:none;stroke-width:0.00280892;stroke-linejoin:bevel;stroke-miterlimit:4;stroke-dasharray:none;stroke-dashoffset:0;stroke-opacity:1"
       d="m -1.4978975,1143.5851 c -7.2905653,-0.4925 -13.9164275,-4.8649 -17.2590625,-11.3893 -1.194456,-2.3314 -1.828226,-4.3569 -2.200602,-7.033 -0.195832,-1.4073 -0.179166,-4.07 0.03467,-5.5382 0.474406,-3.2575 1.547267,-6.091 3.319843,-8.7683 3.090549,-4.6678 7.9544427,-7.9418 13.4127555,-9.0286 1.6443746,-0.3274 2.4189815,-0.4008 4.20243069,-0.3981 2.90822591,0 5.24235411,0.4455 7.80950391,1.4756 5.5769899,2.2379 9.9940569,6.7873 12.0222159,12.3824 2.505576,6.9122 1.248653,14.6368 -3.315546,20.376 -3.727102,4.6867 -9.1585123,7.5154 -15.2256285,7.9297 -1.19270981,0.081 -1.4878974,0.081 -2.800575,-0.01 z"
       id="path981"
       inkscape:connector-curvature="0" />
  </g>
  <g
     inkscape:groupmode="layer"
     inkscape:label="Cu"
     id="g153"
     style="display:inline"
     sodipodi:insensitive="true">
    <path
       style="display:inline;opacity:1;fill:#0000ff;fill-opacity:1;stroke:none;stroke-width:0.00280892;stroke-linejoin:bevel;stroke-miterlimit:4;stroke-dasharray:none;stroke-dashoffset:0;stroke-opacity:1"
       d="m -1.9944906,1142.7982 c -1.235792,-0.1152 -3.2795262,-0.559 -4.4963215,-0.9764 -2.2451619,-0.7702 -4.4448609,-1.9681 -6.2428269,-3.3997 -0.347443,-0.2766 -1.117423,-0.9903 -1.711067,-1.5859 -5.910045,-5.9294 -7.554104,-14.7458 -4.200228,-22.524 1.446781,-3.3553 4.06149,-6.4867 7.211884,-8.6368 4.1448008,-2.8289 9.2403422,-4.0163 14.269318,-3.3253 3.4886415,0.4794 7.1123467,2.0461 9.919232,4.2884 0.874907,0.6989 2.404081,2.222 3.078234,3.0659 1.790273,2.2411 3.194902,5.0308 3.872753,7.6916 0.46514,1.8258 0.628805,3.1567 0.630703,5.1289 0.0031,3.2312 -0.635193,6.0178 -2.042745,8.9179 -0.982397,2.0241 -2.218874,3.7656 -3.827197,5.3903 -3.282592,3.3161 -7.486343,5.3678 -12.1049889,5.9081 -0.8561249,0.1002 -3.5193399,0.135 -4.3567497,0.057 z m -1.6599505,-4.8224 c 2.1555373,-1.6701 3.5541608,-2.7055 3.65457145741,-2.7055 0.0973739726,0 0.86325135259,0.5423 1.90815634259,1.3513 0.9600218,0.7432 2.5587116,1.9806 3.5526439,2.7498 0.9939323,0.7692 1.8514031,1.3985 1.9054905,1.3985 0.054087,0 0.1695648,-0.059 0.2566173,-0.1301 0.14509,-0.1192 0.2044414,-0.4946 0.7123794,-4.5061 0.3047554,-2.4069 0.5739023,-4.4385 0.5981029,-4.5147 0.024201,-0.076 0.117021,-0.1564 0.2062667,-0.178 0.089246,-0.022 2.1186796,-0.2875 4.5098516,-0.5909 4.035782,-0.512 4.357044,-0.5632 4.479462,-0.7144 0.08276,-0.1022 0.113844,-0.2196 0.08347,-0.3154 -0.02663,-0.084 -1.242538,-1.6929 -2.702026,-3.5755 -1.459489,-1.8827 -2.691879,-3.4947 -2.738645,-3.5823 -0.110822,-0.2076 -0.234502,-0.033 2.839368,-3.9993 1.407579,-1.8161 2.579591,-3.3662 2.604473,-3.4446 0.02701,-0.085 -0.0097,-0.2103 -0.09109,-0.3109 -0.128312,-0.1584 -0.391887,-0.2006 -4.479463,-0.7167 -2.38872,-0.3016 -4.416147,-0.565 -4.5053926,-0.5853 -0.089246,-0.02 -0.1818298,-0.099 -0.205742,-0.174 -0.023912,-0.075 -0.292958,-2.107 -0.5978792,-4.5148 -0.5085637,-4.0157 -0.5675072,-4.3885 -0.7129033,-4.5078 -0.2913743,-0.239 0.1827126,-0.5627 -4.5268771,3.0904 -1.6744643,1.2988 -3.00199768,2.2775 -3.09013599,2.2781 -0.09080339,7e-4 -1.61863111,-1.1328 -3.70507741,-2.7487 -1.9528059,-1.5124 -3.6115947,-2.7498 -3.6861973,-2.7498 -0.1703147,0 -0.358093,0.1835 -0.4044608,0.3954 -0.04497,0.2054 -1.079546,8.3929 -1.079546,8.5434 0,0.061 -0.058526,0.1788 -0.1300589,0.2608 -0.1158178,0.1329 -0.6020455,0.2078 -4.4405814,0.6842 -2.370788,0.2942 -4.402919,0.5695 -4.515847,0.6116 -0.252987,0.095 -0.335628,0.3673 -0.18222,0.6014 0.06155,0.094 1.302523,1.7074 2.757709,3.5854 1.48332,1.9143 2.645179,3.4799 2.644395,3.5632 -7.65e-4,0.082 -1.221911,1.7205 -2.713651,3.6416 -1.49174,1.9212 -2.732783,3.5713 -2.757874,3.667 -0.03115,0.1188 4.83e-4,0.2201 0.09978,0.3194 0.126234,0.1262 0.727623,0.2191 4.561815,0.7042 3.9658143,0.5018 4.4296823,0.5743 4.5464714,0.7108 0.071532,0.083 0.1315892,0.2234 0.1334598,0.3109 0.00187,0.087 0.2473333,2.0623 0.5454736,4.3885 0.512137,3.996 0.5515129,4.2373 0.7129918,4.368 0.1040798,0.084 0.2276008,0.1204 0.3158669,0.092 0.079722,-0.025 1.7163076,-1.2635 3.6368574,-2.7515 z"
       id="path985"
       inkscape:connector-curvature="0" />
    <path
       style="display:inline;opacity:1;fill:#0000ff;fill-opacity:1;stroke:none;stroke-width:0.00280892;stroke-linejoin:bevel;stroke-miterlimit:4;stroke-dasharray:none;stroke-dashoffset:0;stroke-opacity:1"
       d="m -6.9709203,1139.1834 c -0.1176476,-0.086 -0.2083834,-0.6588 -0.6445815,-4.069 -0.2792127,-2.1829 -0.508262,-4.007 -0.5089978,-4.0535 -7.431e-4,-0.047 -0.059865,-0.1549 -0.1313973,-0.2407 -0.1177531,-0.1412 -0.4675796,-0.1983 -3.6973881,-0.6043 -5.042632,-0.6338 -4.793599,-0.5879 -4.793599,-0.8833 0,-0.067 1.137086,-1.5907 2.526858,-3.3851 1.584982,-2.0464 2.526859,-3.3241 2.526859,-3.4278 0,-0.1038 -0.940928,-1.3794 -2.526167,-3.4247 -1.389392,-1.7926 -2.526478,-3.3137 -2.526859,-3.3802 -3.8e-4,-0.066 0.04669,-0.1603 0.104594,-0.2084 0.129642,-0.1075 0.217233,-0.1204 4.602861,-0.6738 1.955908,-0.2469 3.6174679,-0.4816 3.692355,-0.5217 0.074888,-0.04 0.1542045,-0.1314 0.1762603,-0.203 0.022056,-0.072 0.2594883,-1.8692 0.5276281,-3.9947 0.2681398,-2.1256 0.5035813,-3.9389 0.5232046,-4.0297 0.056966,-0.2636 0.3021022,-0.3539 0.5405626,-0.1992 0.1096671,0.071 1.4368118,1.0875 2.9492108,2.2586 1.512399,1.1711 2.91123586,2.2523 3.10852627,2.4028 0.19728967,0.1504 0.43522534,0.2735 0.52874437,0.2735 0.10987969,0 1.32391326,-0.8939 3.43157766,-2.5268 1.7938487,-1.3897 3.2969556,-2.5268 3.3402377,-2.5269 0.3016749,-2e-4 0.3180824,0.082 0.8494584,4.2699 0.4257794,3.3554 0.5416975,4.1068 0.6497162,4.2119 0.1055922,0.1027 0.9142635,0.2264 4.107562,0.6285 2.186847,0.2753 4.051334,0.5279 4.143305,0.5612 0.299729,0.1087 0.213932,0.412 -0.301971,1.0676 -2.58507,3.2852 -4.528788,5.8674 -4.528788,6.0165 0,0.1137 0.855811,1.2767 2.498424,3.3954 2.474732,3.1919 2.683911,3.5085 2.424151,3.669 -0.04147,0.026 -1.884321,0.2773 -4.095221,0.5592 -2.2109,0.2819 -4.0801706,0.5318 -4.1539355,0.5552 -0.073764,0.023 -0.1562944,0.1 -0.1833986,0.1698 -0.035593,0.092 -1.0792406,8.0557 -1.0792406,8.2354 0,0.014 -0.066887,0.06 -0.1486387,0.1041 -0.1058464,0.057 -0.1919126,0.056 -0.2989504,-9e-4 -0.082671,-0.044 -1.5732116,-1.1825 -3.3123114,-2.5295 -2.226024,-1.7241 -3.21716482,-2.449 -3.34836377,-2.449 -0.13085336,0 -1.05356463,0.6714 -3.09773433,2.2542 -3.5845909,2.7754 -3.6162866,2.7995 -3.6832104,2.7995 -0.029932,0 -0.1160363,-0.045 -0.1913426,-0.1001 z m 9.1754737,-5.8805 c 4.4041706,-0.9778 7.6587293,-4.2559 8.5978306,-8.6603 0.191697,-0.8991 0.191697,-3.3372 0,-4.2362 -0.623917,-2.9262 -2.2908539,-5.4246 -4.6960641,-7.0386 -2.0021465,-1.3434 -4.5871635,-2.012 -6.98217255,-1.8058 -5.03559245,0.4337 -9.08731615,4.1341 -9.96879335,9.1045 -0.177959,1.0035 -0.177532,2.7167 9.27e-4,3.716 0.621465,3.4798 2.7934088,6.3879 5.9584512,7.978 1.0554226,0.5302 1.8790246,0.7881 3.4481724,1.0797 0.44739812,0.083 3.0989071,-0.017 3.6416488,-0.1373 z"
       id="path987"
       inkscape:connector-curvature="0" />
  </g>
</svg>
